<?xml version="1.0" encoding="utf-8"?>
<!-- Generator: Adobe Illustrator 17.0.0, SVG Export Plug-In . SVG Version: 6.00 Build 0)  -->
<!DOCTYPE svg PUBLIC "-//W3C//DTD SVG 1.1//EN" "http://www.w3.org/Graphics/SVG/1.1/DTD/svg11.dtd">
<svg version="1.1" id="图层_1" xmlns="http://www.w3.org/2000/svg" xmlns:xlink="http://www.w3.org/1999/xlink" x="0px" y="0px"
	 width="400px" height="400px" viewBox="0 0 400 400" enable-background="new 0 0 400 400" xml:space="preserve">
<path d="M282.141,85.448c0-1.403,0-2.81-0.083-4.208c-0.555-9.394-9.437-17.786-18.846-17.791
	c-25.029-0.011-50.06-0.003-75.091-0.003v0.059c-25.265,0-50.531-0.015-75.796,0.007c-10.319,0.008-19.216,9.056-19.1,19.328
	c0.043,3.74,0.086,7.484,0.084,11.225c-0.017,34.852,0.263,69.707-0.231,104.552c-0.182,12.663,11.002,21.968,21.208,20.925
	c4.05-0.414,8.178-0.046,12.272-0.036c1.56,0.005,2.745,0.113,2.316,2.357c-0.606,3.155-0.976,6.372-1.194,9.581
	c-0.24,3.541,1.822,6.091,4.026,8.615c1.143,1.311,1.905,3.005,2.627,4.618c0.415,0.931,0.136,2.226,0.665,3.032
	c0.544,0.828,1.667,1.662,2.583,1.719c0.597,0.033,1.92-1.422,1.819-2.025c-0.72-4.303,1.623-5.847,5.276-6.527
	c0.775-0.146,1.483-0.676,2.204-1.061c8.567-4.562,15.406-11.242,22.231-17.971c1.13-1.118,2.921-2.148,4.437-2.192
	c8.298-0.237,16.608-0.255,24.908-0.087c1.543,0.031,3.323,0.94,4.542,1.976c4.442,3.772,8.562,7.927,13.047,11.644
	c4.586,3.801,9.569,7.106,15.327,8.919c4.365,1.375,4.329,1.264,4.021,5.865c-0.057,0.852,0.495,2.168,1.166,2.53
	c0.75,0.405,2.365,0.347,2.86-0.192c0.671-0.732,0.662-2.106,0.895-3.215c0.45-2.138,0.147-4.966,1.419-6.306
	c5.18-5.457,5.231-11.698,3.611-18.26c-0.662-2.685,0.289-3.025,2.548-2.981c4.673,0.092,9.358-0.197,14.021,0.032
	c10.92,0.529,20.517-9.993,20.396-20.798C281.886,161.006,282.145,123.225,282.141,85.448L282.141,85.448z M149.417,232.879
	c-2.443,1.859-5.433,3.179-8.366,4.182c-4.749,1.624-8.496-1.116-8.939-6.145c-0.061-0.693-0.009-1.398-0.009-2.096
	c0.037-6.285,3.437-10.987,7.483-15.263c5.061-5.352,11.513-8.728,18.221-11.405c6.03-2.407,12.33-4.142,18.539-6.083
	c0.951-0.298,2.068-0.231,3.085-0.121c2.012,0.217,2.625,1.434,1.765,3.202c-1.018,2.093-1.945,4.305-3.36,6.115
	C169.634,215.759,159.992,224.833,149.417,232.879L149.417,232.879z M177.445,213.162c3.184-4.754,5.889-8.792,8.644-12.9
	c2.863,4.171,5.59,8.144,8.854,12.9H177.445z M240.956,233.884c-1.637,3.611-4.748,4.808-8.587,3.571
	c-6.135-1.979-11.135-5.761-15.802-9.966c-5.881-5.301-11.717-10.68-17.196-16.386c-3.03-3.154-5.547-6.889-7.825-10.646
	c-1.893-3.121-0.542-4.85,3.211-5.023c4.265,1.145,8.583,2.122,12.783,3.47c7.111,2.287,14.093,4.979,20.267,9.282
	c5.792,4.036,10.851,8.786,13.061,15.826C241.895,227.29,242.452,230.579,240.956,233.884L240.956,233.884z M276.365,144.82
	c-0.006,18.008-0.045,36.015-0.076,54.021c-0.009,6.514-2.802,11.333-9.04,13.529c-2.461,0.868-5.269,0.988-7.924,1.015
	c-5.691,0.057-11.393-0.071-17.081-0.353c-1.351-0.067-2.975-0.71-3.934-1.642c-11.514-11.179-25.835-16.417-41.151-19.414
	c-3.363-0.657-7.015-0.787-9.956,2.001c-0.41,0.389-1.934,0.26-2.417-0.19c-2.768-2.589-6.213-2.487-9.304-1.781
	c-14.341,3.278-28.239,7.793-38.68,18.913c-3.091,3.295-6.669,2.245-10.05,2.487c-4.626,0.329-9.304-0.128-13.96-0.228
	c-8.064-0.17-13.57-5.673-13.582-13.712c-0.029-19.295-0.01-38.589-0.01-57.884h-0.017c0-19.29,0.174-38.582-0.088-57.869
	c-0.101-7.463,6.519-14.218,13.135-14.006c6.65,0.213,13.311,0.025,19.967,0.001c17.161-0.059,34.322-0.177,51.482-0.172
	c21.614,0.008,43.229,0.116,64.844,0.183c4.665,0.015,9.332-0.004,13.996,0.07c8.065,0.131,13.752,5.787,13.788,13.982
	C276.4,104.12,276.374,124.47,276.365,144.82L276.365,144.82z M248.849,117.844c-5.455-4.717-11.797-7.902-18.639-9.899
	c-3.876-1.132-7.997-1.505-12.038-1.926c-0.915-0.095-1.959,1.031-2.945,1.594c0.876,0.721,1.652,1.675,2.652,2.106
	c1.302,0.557,2.784,0.695,4.186,1.015v0.953c-1.038,0.726-2.065,1.465-3.114,2.173c-7.345,4.948-10.386,14.949-6.945,22.847
	c4.596,10.545,14.114,14.386,24.458,10.778c8.831-3.081,13.329-9.656,12.381-20.218c-0.13-1.457-0.273-2.314,1.537-2.786
	c2.631-0.687,2.87-1.74,1.167-3.918C250.766,119.565,249.814,118.679,248.849,117.844L248.849,117.844z M215.642,124.767
	c0.096-1.78,2.19-3.793,3.982-3.826c2.175-0.04,3.983,1.779,3.982,4.005c0,2.374-1.56,3.885-4.009,3.882
	C217.595,128.826,215.539,126.714,215.642,124.767L215.642,124.767z M222.225,142.771c-2.615-0.041-5.02-2.784-5.015-5.722
	c0.004-2.853,2.574-5.365,5.395-5.274c2.548,0.082,4.966,2.679,4.981,5.35C227.607,140.32,225.236,142.814,222.225,142.771
	L222.225,142.771z M236.041,138.467c-4.327-0.133-8.006-4.341-7.898-9.032c0.109-4.737,4.495-8.861,9.212-8.664
	c4.268,0.18,8.391,4.771,8.311,9.256C245.578,135.021,241.457,138.634,236.041,138.467L236.041,138.467z M151.375,112.642
	c-0.885-0.617-1.767-1.238-2.254-1.578c1.576-1.624,3.85-3.106,3.632-3.906c-0.64-2.335-3.048-1.164-4.789-1.255
	c-0.116-0.005-0.233,0.022-0.349,0.03c-8.335,0.669-15.311,4.675-21.96,9.255c-2.457,1.691-4.567,3.984-6.529,6.267
	c-1.825,2.126-1.334,3.504,1.336,3.768c2.245,0.223,2.213,1.297,2.208,3.019c-0.015,7.255,3.195,12.769,9.486,16.355
	c5.904,3.366,11.931,3.624,17.953,0.201C162.756,137.611,163.408,121.013,151.375,112.642L151.375,112.642z M127.342,123.933
	c-0.293-1.791,2.029-4.151,3.871-4.138c1.875,0.013,3.598,1.842,3.66,3.883c0.072,2.374-1.212,3.73-3.511,3.74
	C128.996,127.429,127.7,126.121,127.342,123.933L127.342,123.933z M133.947,141.122c-2.633,0.013-5.414-2.795-5.368-5.426
	c0.051-2.996,2.364-5.03,5.602-4.928c3.058,0.097,4.826,2.037,4.778,5.245C138.917,139.049,136.897,141.108,133.947,141.122
	L133.947,141.122z M148.003,137.17c-4.572,0.022-8.434-3.8-8.489-8.402c-0.059-4.829,3.717-9.093,8.337-8.972
	c5.216,0.137,8.536,3.494,8.879,8.976C156.971,132.634,152.402,137.407,148.003,137.17L148.003,137.17z M186.167,166.654
	c-7.915,0.127-13.345,3.484-17.726,8.598c-0.934,1.087-0.779,3.104-1.126,4.693c1.409-0.259,2.86-0.383,4.22-0.803
	c4.088-1.269,8.054-3.228,12.23-3.854c5.547-0.83,10.739,1.164,15.57,3.999c0.84,0.494,2.013,0.422,3.033,0.611
	c-0.158-1.084,0.024-2.395-0.527-3.216C197.899,170.8,192.781,166.737,186.167,166.654L186.167,166.654z M233.864,154.417
	c-0.506,0.343-1.522,0.358-2.108,0.092c-4.397-1.991-6.126-1.647-9.407,2.209h15.381c0.059-0.325,0.116-0.652,0.175-0.978
	C236.937,154.336,236.027,152.947,233.864,154.417L233.864,154.417z M137.431,152.722c-0.814,0.223-1.452,1.094-2.17,1.667
	c0.784,0.316,1.585,0.931,2.351,0.889c2.531-0.135,5.048-0.51,7.572-0.791c0.007,0.063,0.013,0.125,0.022,0.189
	c0.348,0.021,0.701,0.091,1.04,0.05c0.788-0.093,1.569-0.239,2.354-0.363c-0.704-0.507-1.407-1.015-2.11-1.523
	C143.504,150.691,140.433,151.897,137.431,152.722L137.431,152.722z"/>
<path d="M80.884,277.165c0,8.197,47.184,14.863,105.382,14.863c58.197,0,105.381-6.636,105.381-14.863
	c0-8.228-47.184-14.862-105.381-14.862C128.067,262.303,80.884,268.938,80.884,277.165L80.884,277.165z"/>
<path d="M354.001,210.355c0,2.446,1.643,4.586,4.006,5.22c2.363,0.632,4.856-0.4,6.08-2.518c1.223-2.118,0.872-4.794-0.858-6.525
	c-1.73-1.73-4.406-2.083-6.525-0.861C355.031,206.635,354,208.421,354.001,210.355"/>
<path d="M4.057,157.66H0.002c0.001,1.834,1.235,3.44,3.007,3.915c1.774,0.474,3.644-0.302,4.561-1.892
	c0.917-1.591,0.651-3.598-0.647-4.896c-1.299-1.296-3.307-1.56-4.896-0.641c-1.254,0.724-2.027,2.063-2.026,3.513"/>
<path d="M337.788,176.577c0-5.223-4.234-9.457-9.458-9.457c-5.222,0-9.456,4.234-9.456,9.457s4.234,9.456,9.456,9.456
	C333.527,185.971,337.725,181.774,337.788,176.577L337.788,176.577z M313.468,176.577c0-8.209,6.655-14.863,14.862-14.863
	c8.209,0,14.863,6.654,14.863,14.863s-6.654,14.862-14.863,14.862C320.152,191.368,313.54,184.756,313.468,176.577L313.468,176.577z
	"/>
<path d="M348.596,73.889c0-3.824-2.305-7.273-5.838-8.736c-3.534-1.465-7.601-0.655-10.306,2.049
	c-2.705,2.705-3.514,6.772-2.05,10.306c1.464,3.534,4.912,5.839,8.737,5.839C344.335,83.284,348.532,79.086,348.596,73.889
	L348.596,73.889z M335.083,73.889c-0.001-1.641,0.986-3.121,2.501-3.749s3.259-0.283,4.421,0.877c1.16,1.159,1.508,2.904,0.881,4.42
	c-0.628,1.516-2.107,2.504-3.747,2.504c-2.217-0.054-4.002-1.838-4.055-4.055v0.003L335.083,73.889L335.083,73.889z
	 M386.157,142.527h-4.593c-1.6,0.059-2.866,1.371-2.866,2.973c0,1.601,1.266,2.914,2.866,2.972h4.593v4.593
	c0.058,1.6,1.371,2.866,2.972,2.866c1.601,0,2.914-1.266,2.973-2.866v-4.593h4.593c1.088,0.04,2.11-0.518,2.665-1.454
	c0.556-0.936,0.556-2.101,0-3.037c-0.555-0.936-1.578-1.494-2.665-1.454h-4.593v-4.593c0.039-1.087-0.518-2.11-1.454-2.665
	c-0.936-0.556-2.101-0.556-3.037,0c-0.936,0.555-1.494,1.578-1.454,2.665L386.157,142.527L386.157,142.527z"/>
<path d="M56.752,237.378h-8.111c-1.489,0.004-2.697,1.211-2.7,2.702c-0.045,0.728,0.226,1.441,0.743,1.957
	c0.516,0.517,1.229,0.786,1.957,0.743h8.111v8.106c0.005,1.49,1.211,2.697,2.7,2.702c0.73,0.043,1.441-0.228,1.958-0.744
	c0.516-0.516,0.787-1.229,0.743-1.958v-8.106h8.103c1.489-0.005,2.696-1.211,2.7-2.7c0.043-0.73-0.226-1.442-0.743-1.958
	c-0.516-0.516-1.229-0.787-1.957-0.743h-8.103v-8.106c-0.004-1.49-1.211-2.697-2.702-2.7c-0.728-0.044-1.441,0.226-1.957,0.742
	c-0.517,0.517-0.788,1.229-0.743,1.958v8.105H56.752z"/>
<g>
	<path d="M127.273,323.86c-0.952,2.414-2.142,4.828-3.434,7.071v23.084h-2.209v-19.616c-1.258,1.802-2.55,3.468-3.944,4.862
		c-0.238-0.511-0.884-1.633-1.292-2.176c3.467-3.366,6.765-8.533,8.737-13.871L127.273,323.86z M147.331,337.086h-9.281v16.998
		h-2.312v-16.998h-9.621v-2.21h9.621v-11.457h2.312v11.457h9.281V337.086z"/>
	<path d="M166.508,324.371c-3.332,5.201-8.499,10.98-13.531,14.856c-0.408-0.511-1.19-1.258-1.7-1.632
		c4.929-3.604,10.165-9.315,12.918-14.075L166.508,324.371z M178.849,353.71c-0.476-1.054-1.224-2.346-2.04-3.672
		c-20.126,1.7-21.996,1.768-23.253,2.21c-0.136-0.51-0.612-1.632-0.952-2.312c1.02-0.238,2.482-1.429,4.521-3.298
		c2.21-1.904,9.179-8.976,14.381-16.284l2.278,1.088c-5.27,7.104-11.015,13.326-16.522,18.018l18.154-1.529
		c-1.496-2.21-3.23-4.556-4.862-6.493l1.972-1.021c3.23,3.773,6.833,8.839,8.465,12.103L178.849,353.71z"/>
	<path d="M208.974,351.296c3.195,0,3.705-1.155,4.113-6.119c0.612,0.374,1.53,0.748,2.142,0.918
		c-0.51,5.474-1.428,7.275-6.289,7.275h-12.137c-4.862,0-6.323-1.021-6.323-5.134v-10.913l-5.678,1.734l-0.612-2.006l6.29-1.904
		v-9.757h2.176v9.077l7.377-2.278v-9.043h2.21v8.397l8.125-2.516l0.238-0.204l0.476-0.306l1.598,0.68l-0.136,0.476
		c-0.102,6.324-0.374,10.505-1.088,12.443c-0.646,1.733-1.632,2.346-2.754,2.516c-1.054,0.136-2.754,0.17-3.943,0.102
		c-0.068-0.578-0.271-1.563-0.578-2.107c1.224,0.102,2.855,0.102,3.468,0.102c0.782,0,1.36-0.237,1.836-1.598
		c0.544-1.563,0.782-4.896,0.85-9.927l-8.091,2.481v13.225h-2.21v-12.545l-7.377,2.313v11.627c0,2.379,0.714,2.991,4.045,2.991
		H208.974z"/>
	<path d="M224.615,337.97c-1.428-1.021-4.147-2.618-6.256-3.638l1.225-1.7c2.073,1.02,4.861,2.516,6.255,3.468L224.615,337.97z
		 M227.063,342.593c-1.665,3.536-3.943,7.888-5.779,10.947l-1.903-1.428c1.733-2.652,4.216-7.14,6.052-10.947L227.063,342.593z
		 M226.111,329.063c-1.395-1.054-4.046-2.754-6.119-3.91l1.291-1.598c1.973,1.088,4.726,2.686,6.12,3.706L226.111,329.063z
		 M246.917,338.649c-1.462,4.046-3.978,7.241-7.071,9.655c2.788,1.733,6.119,2.991,9.791,3.705c-0.51,0.51-1.156,1.428-1.462,2.074
		c-3.943-0.884-7.411-2.346-10.301-4.386c-3.196,2.073-6.901,3.468-10.709,4.352c-0.204-0.612-0.748-1.53-1.122-2.04
		c3.536-0.714,7.004-1.938,10.029-3.773c-2.516-2.142-4.521-4.794-5.916-7.887l0.374-0.137h-1.938v-2.142h16.421l0.441-0.102
		L246.917,338.649z M234.406,328.246c0,3.196-1.088,6.901-6.052,9.315c-0.306-0.476-1.054-1.326-1.495-1.666
		c4.555-2.142,5.337-5.1,5.337-7.684v-3.875h11.389v7.581c0,0.986,0.103,1.326,0.714,1.326h3.026c0.51,0,1.292-0.034,1.768-0.17
		c0.068,0.646,0.136,1.598,0.238,2.176c-0.442,0.136-1.225,0.17-1.972,0.17h-3.23c-2.243,0-2.787-0.952-2.787-3.536v-5.405h-6.936
		V328.246z M232.4,340.213c1.292,2.584,3.195,4.896,5.575,6.766c2.448-1.802,4.488-4.08,5.813-6.766H232.4z"/>
	<path d="M264.463,329.674c-0.646,1.395-1.395,2.822-2.176,4.148h16.522v17.304c0,1.428-0.341,2.107-1.395,2.481
		s-2.924,0.374-5.881,0.374c-0.103-0.646-0.442-1.563-0.748-2.21c2.346,0.103,4.419,0.068,4.997,0.068
		c0.612-0.034,0.816-0.238,0.816-0.748v-3.773h-14.551v6.731h-2.21v-16.692c-1.699,2.142-3.638,4.08-5.847,5.644
		c-0.307-0.51-1.021-1.326-1.462-1.734c4.113-2.821,7.274-7.037,9.484-11.593h-8.703v-2.142h9.655
		c0.612-1.462,1.122-2.958,1.496-4.419l2.277,0.51c-0.408,1.325-0.85,2.617-1.359,3.909h17.439v2.142H264.463z M276.6,335.861
		h-14.551v3.706H276.6V335.861z M276.6,345.347v-3.808h-14.551v3.808H276.6z"/>
</g>
</svg>
