<?xml version="1.0" encoding="utf-8"?>
<!-- Generator: Adobe Illustrator 17.0.0, SVG Export Plug-In . SVG Version: 6.00 Build 0)  -->
<!DOCTYPE svg PUBLIC "-//W3C//DTD SVG 1.1//EN" "http://www.w3.org/Graphics/SVG/1.1/DTD/svg11.dtd">
<svg version="1.1" id="图层_1" xmlns="http://www.w3.org/2000/svg" xmlns:xlink="http://www.w3.org/1999/xlink" x="0px" y="0px"
	 width="400px" height="400px" viewBox="-100 -100.1 400 400" enable-background="new -100 -100.1 400 400" xml:space="preserve">
<g>
	<path d="M21.219,175.836H-83.904c-8.876,0-16.096,7.22-16.096,16.096c0,8.875,7.221,16.096,16.096,16.096H21.219
		c8.876,0,16.096-7.221,16.096-16.096C37.316,183.056,30.095,175.836,21.219,175.836z"/>
	<path d="M-83.904-28.499h236.526c8.875,0,16.096-7.221,16.096-16.096c0-8.876-7.221-16.096-16.096-16.096H-83.904
		c-8.875,0-16.096,7.221-16.096,16.096C-100-35.72-92.779-28.499-83.904-28.499z"/>
	<path d="M-83.904,129.186h78.842c8.876,0,16.096-7.221,16.096-16.096S3.814,96.993-5.062,96.993h-78.842
		c-8.875,0-16.096,7.221-16.096,16.096S-92.779,129.186-83.904,129.186z"/>
	<path d="M21.219,18.151H-83.904c-8.876,0-16.096,7.221-16.096,16.096c0,8.875,7.221,16.096,16.096,16.096H21.219
		c8.876,0,16.096-7.221,16.096-16.096C37.316,25.372,30.095,18.151,21.219,18.151z"/>
	<path d="M295.472,233.941l-43.425-43.424c14.251-19.043,21.769-41.224,21.769-64.314c0-59.595-48.484-108.078-108.079-108.078
		S57.658,66.609,57.658,126.203c0,59.595,48.484,108.079,108.079,108.079c23.09,0,45.271-7.518,64.313-21.768l43.43,43.43
		c2.947,2.932,6.851,4.546,10.993,4.546c4.142,0,8.046-1.615,11.005-4.557C301.508,249.872,301.508,240.008,295.472,233.941z
		 M241.623,126.207c0.024,19.76-7.586,38.486-21.433,52.761c-0.269,0.154-0.684,0.413-1.077,0.853
		c-0.249,0.28-0.421,0.551-0.562,0.787c-14.287,13.855-33.033,21.482-52.815,21.482c-41.844,0-75.887-34.043-75.887-75.887
		s34.043-75.886,75.887-75.886S241.623,84.36,241.623,126.207z"/>
</g>
</svg>
