<?xml version="1.0" encoding="utf-8"?>
<!-- Generator: Adobe Illustrator 17.0.0, SVG Export Plug-In . SVG Version: 6.00 Build 0)  -->
<!DOCTYPE svg PUBLIC "-//W3C//DTD SVG 1.1//EN" "http://www.w3.org/Graphics/SVG/1.1/DTD/svg11.dtd">
<svg version="1.1" id="图层_1" xmlns="http://www.w3.org/2000/svg" xmlns:xlink="http://www.w3.org/1999/xlink" x="0px" y="0px"
	 width="300px" height="300px" viewBox="0 0 300 300" enable-background="new 0 0 300 300" xml:space="preserve">
<g>
	<path d="M280.425,130.435H169.574V19.564C169.574,8.752,160.804,0,150,0c-10.802,0-19.573,8.752-19.573,19.564v110.871H19.575
		c-10.803,0-19.574,8.762-19.574,19.566c0,10.802,8.77,19.564,19.574,19.564h110.853v110.871c0,10.802,8.77,19.564,19.573,19.564
		c10.804,0,19.574-8.761,19.574-19.564V169.565h110.851c10.804,0,19.574-8.762,19.574-19.564
		C300.001,139.197,291.229,130.435,280.425,130.435L280.425,130.435z M280.425,130.435"/>
</g>
</svg>
