<?xml version="1.0" encoding="utf-8"?>
<!-- Generator: Adobe Illustrator 17.0.0, SVG Export Plug-In . SVG Version: 6.00 Build 0)  -->
<!DOCTYPE svg PUBLIC "-//W3C//DTD SVG 1.1//EN" "http://www.w3.org/Graphics/SVG/1.1/DTD/svg11.dtd">
<svg version="1.1" id="图层_1" xmlns="http://www.w3.org/2000/svg" xmlns:xlink="http://www.w3.org/1999/xlink" x="0px" y="0px"
	 width="400px" height="400px" viewBox="-100 -100 400 400" enable-background="new -100 -100 400 400" xml:space="preserve">
<g>
	<path d="M114.037,93.767c34.404-29.524,74.994-42.281,74.994-87.509C189.031-53.419,145.301-100,89.007-100
		S-10.969-53.419-10.969,6.258c0,39.188,17.782,75.187,47.258,94.129C-38.077,124.305-92.244,213.409-92.244,300h225.03
		C68.084,284.586,28.074,161.657,114.037,93.767z"/>
	<path d="M273.689,173.183H217.33v-56.359c0-10.248-8.307-18.555-18.555-18.555c-10.248,0-18.555,8.307-18.555,18.555v56.359
		h-56.359c-10.248,0-18.555,8.307-18.555,18.555c0,10.248,8.307,18.555,18.555,18.555h56.359v56.359
		c0,10.248,8.307,18.555,18.555,18.555c10.248,0,18.555-8.308,18.555-18.555v-56.359h56.359c10.248,0,18.555-8.308,18.555-18.555
		C292.244,181.491,283.937,173.183,273.689,173.183z"/>
</g>
</svg>
