<?xml version="1.0" encoding="utf-8"?>
<!-- Generator: Adobe Illustrator 17.0.0, SVG Export Plug-In . SVG Version: 6.00 Build 0)  -->
<!DOCTYPE svg PUBLIC "-//W3C//DTD SVG 1.1//EN" "http://www.w3.org/Graphics/SVG/1.1/DTD/svg11.dtd">
<svg version="1.1" id="图层_1" xmlns="http://www.w3.org/2000/svg" xmlns:xlink="http://www.w3.org/1999/xlink" x="0px" y="0px"
	 width="400px" height="400px" viewBox="0 0 400 400" enable-background="new 0 0 400 400" xml:space="preserve">
<path d="M92.306,362.022c-6.202,6.574-11.368,20.416-0.179,31.604c4.169,4.17,9.179,6.374,14.487,6.374c0.001,0,0.001,0,0.001,0
	c9.279,0,16.158-6.652,17.193-7.71l165.517-165.17l26.209-26.351l-26.185-26.375L122.941,7.831C121.572,6.33,115.264,0,106.299,0
	c-3.756,0-9.408,1.175-15.003,6.77c-5.721,5.722-6.871,11.619-6.829,15.559c0.099,9.211,6.506,15.835,7.541,16.845l161.873,161.59
	L92.38,361.944L92.306,362.022z"/>
</svg>
