<?xml version="1.0" encoding="utf-8"?>
<!-- Generator: Adobe Illustrator 17.0.0, SVG Export Plug-In . SVG Version: 6.00 Build 0)  -->
<!DOCTYPE svg PUBLIC "-//W3C//DTD SVG 1.1//EN" "http://www.w3.org/Graphics/SVG/1.1/DTD/svg11.dtd">
<svg version="1.1" id="图层_1" xmlns="http://www.w3.org/2000/svg" xmlns:xlink="http://www.w3.org/1999/xlink" x="0px" y="0px"
	 width="400px" height="400px" viewBox="366.929 366.929 400 400" enable-background="new 366.929 366.929 400 400"
	 xml:space="preserve">
<path d="M759.387,518.995l-0.42-0.45l-181.25-133.779c-3.06-2.26-6.85-3.47-10.65-3.4c-3.86-0.07-7.55,1.11-10.65,3.4
	l-180.75,133.419l-0.33,0.26c-5.73,4.8-13.8,14.96-3.34,29.11l0.39,0.52l0.48,0.44c3.02,2.8,8.63,5.62,14.35,5.62
	c3.43,0,6.6-1.01,9.18-2.91l13.8-10.19v176.62c0,8.77,3.55,17.53,9.75,24.06c6.6,6.95,15.52,10.78,25.09,10.78h71.51
	c0.04,0,0.08,0,0.13,0c1.14,0,4.14-0.18,7.51-1.8c2.14-1,3.97-2.36,5.44-4.03c4.22-4.59,4.44-10.23,4.44-11.36l-0.45-72.23
	l0.01-0.09l-0.02-0.26c-0.01-0.73,0.2-2.8,1.26-3.9c0.71-0.74,2.01-1.11,3.85-1.11h47.42c2.81,0,5.1,2.1,5.1,4.66l-0.34,73.47
	c-0.01,1.19,0.23,6.53,4.82,11.37c4.43,4.95,11.12,5.26,12.43,5.28h81.71c9.57,0,18.48-3.83,25.09-10.78
	c6.2-6.52,9.75-15.29,9.75-24.06v-176.08l13.07,9.65l0.12,0.09c3.5,2.47,7.08,3.72,10.66,3.72l0,0c3.59,0,8.86-1.28,13.54-7.37
	l0.49-0.68C765.017,543.495,772.526,532.865,759.387,518.995z M588.197,621.835h-51.78c-16.46,0-39.85,20.46-39.85,39.57v56.43
	h-40.13c-9.32,0-11.19-3.67-11.19-9.57l0.16-194.63l121.66-88.57l122.41,89.11l0.16,194.069c0,5.91-1.87,9.58-11.19,9.58h-50.4
	v-56.43C628.047,642.295,604.657,621.835,588.197,621.835z"/>
</svg>
