<?xml version="1.0" encoding="utf-8"?>
<!-- Generator: Adobe Illustrator 17.0.0, SVG Export Plug-In . SVG Version: 6.00 Build 0)  -->
<!DOCTYPE svg PUBLIC "-//W3C//DTD SVG 1.1//EN" "http://www.w3.org/Graphics/SVG/1.1/DTD/svg11.dtd">
<svg version="1.1" id="图层_1" xmlns="http://www.w3.org/2000/svg" xmlns:xlink="http://www.w3.org/1999/xlink" x="0px" y="0px"
	 width="400px" height="400px" viewBox="312 312 400 400" enable-background="new 312 312 400 400" xml:space="preserve">
<path d="M619.62,673.944l-161.501-161.18l161.873-161.59c1.035-1.01,7.442-7.634,7.541-16.845c0.042-3.94-1.108-9.837-6.829-15.559
	c-5.595-5.595-11.247-6.77-15.003-6.77c-8.965,0-15.273,6.33-16.642,7.831L422.651,486.394l-26.185,26.375l26.209,26.351
	L588.192,704.29c1.035,1.058,7.914,7.71,17.193,7.71c0,0,0,0,0.001,0c5.308,0,10.318-2.204,14.487-6.374
	c11.189-11.188,6.023-25.03-0.179-31.604L619.62,673.944z"/>
</svg>
