<?xml version="1.0" encoding="utf-8"?>
<!-- Generator: Adobe Illustrator 17.0.0, SVG Export Plug-In . SVG Version: 6.00 Build 0)  -->
<!DOCTYPE svg PUBLIC "-//W3C//DTD SVG 1.1//EN" "http://www.w3.org/Graphics/SVG/1.1/DTD/svg11.dtd">
<svg version="1.1" id="图层_1" xmlns="http://www.w3.org/2000/svg" xmlns:xlink="http://www.w3.org/1999/xlink" x="0px" y="0px"
	 width="400px" height="400px" viewBox="0 0 400 400" enable-background="new 0 0 400 400" xml:space="preserve">
<path d="M129.624,287.715c-22.415,20.469-38.009,19.493-53.604,3.9l-17.544-18.52c-15.593-15.594-15.593-40.935,0-55.554
	l76.022-76.02c15.593-15.593,39.96-15.593,55.554,0l13.646,13.646c11.567,11.524,14.685,29.057,7.798,43.86l34.11,25.341
	c23.391-23.391,23.391-60.428,0-83.821L203.697,98.64c-23.391-23.391-60.428-23.391-83.819,0L17.543,202.923
	c-23.391,23.391-23.391,60.428,0,83.819l41.908,41.911c23.391,23.388,60.428,23.388,83.819,0l39.962-40.937l-28.266-27.289
	L129.624,287.715z M384.979,113.257l-41.908-41.908c-23.391-23.391-60.428-23.391-83.821,0c0,0,1.952,0-22.415,24.367l28.265,26.315
	l12.67-13.646c15.593-15.595,39.96-15.595,55.554,0l13.646,13.646c15.593,15.593,15.593,40.934,0,55.554l-68.223,71.146
	c-15.593,15.595-39.96,15.595-55.554,0l-11.696-18.517c-24.367-18.517-16.569-22.418-14.619-34.112l-30.217-30.214
	c-23.391,23.391-23.391,60.428,0,83.819l41.908,41.911c23.391,23.388,60.428,23.388,83.821,0l93.564-93.564
	C418.118,159.064,384.979,113.257,384.979,113.257L384.979,113.257z"/>
</svg>
