<?xml version="1.0" encoding="utf-8"?>
<!-- Generator: Adobe Illustrator 17.0.0, SVG Export Plug-In . SVG Version: 6.00 Build 0)  -->
<!DOCTYPE svg PUBLIC "-//W3C//DTD SVG 1.1//EN" "http://www.w3.org/Graphics/SVG/1.1/DTD/svg11.dtd">
<svg version="1.1" id="图层_1" xmlns="http://www.w3.org/2000/svg" xmlns:xlink="http://www.w3.org/1999/xlink" x="0px" y="0px"
	 width="400px" height="400px" viewBox="-100 -100 400 400" enable-background="new -100 -100 400 400" xml:space="preserve">
<g>
	<path d="M238.449-7.674h-92.3v-30.749c-0.105-33.955-27.595-61.445-61.551-61.551H-38.449C-72.405-99.869-99.895-72.378-100-38.423
		v307.595v30.802h400v-30.749V53.877C299.895,19.921,272.405-7.516,238.449-7.674z M-23.049-7.622h92.562
		c8.41,0.105,15.138,6.991,15.085,15.401v0.263c-0.053,8.41-6.938,15.138-15.348,15.085h-92.3c-8.62,0-15.348-6.781-15.348-15.348
		c-0.053-0.158-0.053-0.21-0.053-0.315C-38.397-0.946-31.459-7.727-23.049-7.622z M69.566,84.626
		c8.41,0.105,15.138,6.991,15.033,15.401v0.315c-0.105,8.41-6.938,15.138-15.348,15.085h-92.3c-8.62,0-15.348-6.781-15.348-15.401
		c-0.053-8.62,6.728-15.401,15.348-15.401v0H69.566z M84.652,192.589c-0.105,8.41-6.991,15.191-15.401,15.085v0h-92.3
		c-8.62,0-15.348-6.781-15.348-15.401v-0.315c0.105-8.41,6.991-15.138,15.348-15.033h92.615c8.41,0.105,15.138,6.938,15.085,15.348
		V192.589z M269.198,269.225H146.15V23.128h92.3c16.925,0,30.749,13.824,30.749,30.749V269.225z"/>
	<path d="M223.417,84.678c-0.105-0.053-0.263-0.053-0.368-0.053H192.3c-8.41-0.053-15.296,6.675-15.401,15.085v0.263
		c-0.053,8.41,6.728,15.296,15.138,15.401h31.012c8.41,0.053,15.296-6.675,15.348-15.085v-0.263
		C238.502,91.669,231.774,84.783,223.417,84.678z"/>
	<path d="M223.417,176.978c-0.105-0.053-0.21-0.053-0.368-0.053H192.3c-8.41-0.105-15.296,6.675-15.401,15.085v0.263
		c0,8.62,6.781,15.401,15.401,15.401h30.749c8.41,0.053,15.296-6.675,15.348-15.085v-0.263
		C238.502,183.968,231.827,177.083,223.417,176.978z"/>
</g>
</svg>
