<?xml version="1.0" encoding="utf-8"?>
<!-- Generator: Adobe Illustrator 17.0.0, SVG Export Plug-In . SVG Version: 6.00 Build 0)  -->
<!DOCTYPE svg PUBLIC "-//W3C//DTD SVG 1.1//EN" "http://www.w3.org/Graphics/SVG/1.1/DTD/svg11.dtd">
<svg version="1.1" id="图层_1" xmlns="http://www.w3.org/2000/svg" xmlns:xlink="http://www.w3.org/1999/xlink" x="0px" y="0px"
	 width="400px" height="400px" viewBox="-100 -100 400 400" enable-background="new -100 -100 400 400" xml:space="preserve">
<path d="M255.733-60.133c5.9,0,11.533,1.1,16.933,3.267c5.367,2.2,10.133,5,14.333,8.467c4.133,3.733,7.333,8.033,9.6,12.867
	c2.267,4.867,3.4,10.1,3.4,15.733v279.932c0,5.633-1.133,10.867-3.4,15.733c-2.233,4.833-5.467,9-9.633,12.4
	c-4.167,3.767-8.933,6.667-14.333,8.667c-5.333,2.067-11,3.067-16.9,3.067H-55.732c-5.9,0-11.533-1-16.933-3.033
	c-5.28-1.962-10.143-4.902-14.333-8.667c-4.098-3.366-7.38-7.617-9.6-12.433c-2.285-4.928-3.446-10.302-3.4-15.733V-19.8
	c0-5.667,1.2-10.867,3.667-15.733c2.4-4.833,5.533-9.133,9.333-12.867c4.2-3.467,8.967-6.267,14.333-8.467
	c5.4-2.167,11-3.267,16.933-3.267h22.4v-39.867h44.267v39.867h178.133v-39.867h44.267v39.867H255.733z M255.733,260.133V40.2
	H-55.732v219.933H255.733z M210.934,80.067v39.867H-10.932V80.067H210.934z M144.267,160.266v39.867H-10.932v-39.867H144.267z"/>
</svg>
