<?xml version="1.0" encoding="utf-8"?>
<!-- Generator: Adobe Illustrator 17.0.0, SVG Export Plug-In . SVG Version: 6.00 Build 0)  -->
<!DOCTYPE svg PUBLIC "-//W3C//DTD SVG 1.1//EN" "http://www.w3.org/Graphics/SVG/1.1/DTD/svg11.dtd">
<svg version="1.1" id="图层_1" xmlns="http://www.w3.org/2000/svg" xmlns:xlink="http://www.w3.org/1999/xlink" x="0px" y="0px"
	 width="400px" height="400px" viewBox="0 0 400 400" enable-background="new 0 0 400 400" xml:space="preserve">
<path d="M224.402,199.949L342.498,81.833c6.669-6.65,6.669-17.695,0-24.346s-17.744-6.65-24.412,0L199.99,175.603L81.916,57.489
	c-6.669-6.65-17.744-6.65-24.414,0c-6.669,6.65-6.669,17.695,0,24.346L175.576,199.95L57.502,317.996
	c-6.669,6.65-6.669,17.694,0,24.344c6.669,6.65,17.744,6.65,24.414,0l117.954-118.047l118.215,118.22
	c6.669,6.65,17.744,6.65,24.412,0c6.669-6.65,6.669-17.694,0-24.344L224.402,199.949z"/>
</svg>
