<svg version="1" xmlns="http://www.w3.org/2000/svg" width="400" height="400" viewBox="0 0 400 400"><path d="M353 107c7-4 10-10 10-17 0-6-3-12-10-16L221 5c-6-3-13-5-21-5-1 0-15 2-21 5L46 74c-6 3-10 9-9 16-1 7 3 14 9 17l133 68c6 4 13 5 21 5 0 0 15-1 21-5l132-68zm-43-17l-105 55-5 1h-1l-5-1L89 90l105-55h11l105 55zM374 132h-2l-9 2-130 71c-13 7-21 21-21 36v137c0 12 10 22 21 22l9-2 130-71c13-7 21-21 21-36V154c0-11-8-21-19-22zm-16 160l-2 5-110 59V241c0-3 2-5 3-6l109-59v116zM167 205L37 134l-9-2c-11 0-21 10-21 22v137c0 16 8 29 21 36l130 70 9 3c11 0 21-10 21-22V240c0-15-8-29-21-35zm-13 35v116L44 297c-2-1-3-3-2-6V175l109 60c2 1 3 3 3 5z"/></svg>