<svg version="1" xmlns="http://www.w3.org/2000/svg" width="400" height="400" viewBox="-100 -100 400 400"><path d="M178 13c9 0 18-8 18-17v-79c0-9-9-17-18-17-10 0-17 8-17 17v79c0 9 7 17 17 17zM56-57h87v26H56zM21 13c10 0 18-8 18-17v-79c0-9-8-17-18-17-9 0-17 8-17 17v79c0 9 8 17 17 17z"/><path d="M246-57h-33v26h34c10 0 18 9 18 19v60H-65v-60c0-10 8-19 18-19h34v-26h-33c-25 0-45 21-45 46v265c0 25 20 46 45 46h292c25 0 45-21 45-46V-11c0-25-20-46-45-46zM3 248a26 26 0 1 1 0-52 26 26 0 0 1 0 52zm1-96a26 26 0 1 1 0-52 26 26 0 0 1 0 52zm96 96a26 26 0 1 1 0-52 26 26 0 0 1 0 52zm0-96a26 26 0 1 1 0-52 26 26 0 0 1 0 52zm95 0a26 26 0 1 1 0-52 26 26 0 0 1 0 52z"/></svg>