<?xml version="1.0" encoding="utf-8"?>
<!-- Generator: Adobe Illustrator 17.0.0, SVG Export Plug-In . SVG Version: 6.00 Build 0)  -->
<!DOCTYPE svg PUBLIC "-//W3C//DTD SVG 1.1//EN" "http://www.w3.org/Graphics/SVG/1.1/DTD/svg11.dtd">
<svg version="1.1" id="图层_1" xmlns="http://www.w3.org/2000/svg" xmlns:xlink="http://www.w3.org/1999/xlink" x="0px" y="0px"
	 width="400px" height="400px" viewBox="-100 -100 400 400" enable-background="new -100 -100 400 400" xml:space="preserve">
<g>
	<path d="M226.417,26.725c-9.639,0-17.48,7.841-17.48,17.48V254.44c0,5.845-4.755,10.601-10.6,10.601H1.748
		c-5.845,0-10.601-4.756-10.601-10.601V43.63c0-9.638-7.841-17.48-17.48-17.48s-17.48,7.842-17.48,17.48v210.81
		c0,25.122,20.438,45.56,45.56,45.56h196.589c25.121,0,45.559-20.438,45.559-45.56V44.205
		C243.896,34.566,236.055,26.725,226.417,26.725z"/>
	<path d="M75.36,198.28V43.84c0-9.638-7.841-17.48-17.48-17.48S40.4,34.201,40.4,43.84v154.44c0,9.639,7.842,17.48,17.48,17.48
		S75.36,207.919,75.36,198.28z"/>
	<path d="M282.52-29.8H215.76V-54.44c0-25.122-20.293-45.56-45.238-45.56H29.8c-25.122,0-45.56,20.438-45.56,45.56V-29.8h-66.76
		c-9.638,0-17.48,7.841-17.48,17.48s7.841,17.48,17.48,17.48h365.04c9.639,0,17.48-7.841,17.48-17.48S292.159-29.8,282.52-29.8z
		 M19.2-54.44c0-5.845,4.755-10.6,10.6-10.6h140.723c5.762,0,10.277,4.656,10.277,10.6V-29.8H19.2V-54.44z"/>
	<path d="M159.6,198.28V43.84c0-9.638-7.841-17.48-17.479-17.48c-9.639,0-17.48,7.841-17.48,17.48v154.44
		c0,9.639,7.841,17.48,17.48,17.48C151.758,215.76,159.6,207.919,159.6,198.28z"/>
</g>
</svg>
