<?xml version="1.0" encoding="utf-8"?>
<!-- Generator: Adobe Illustrator 17.0.0, SVG Export Plug-In . SVG Version: 6.00 Build 0)  -->
<!DOCTYPE svg PUBLIC "-//W3C//DTD SVG 1.1//EN" "http://www.w3.org/Graphics/SVG/1.1/DTD/svg11.dtd">
<svg version="1.1" id="图层_1" xmlns="http://www.w3.org/2000/svg" xmlns:xlink="http://www.w3.org/1999/xlink" x="0px" y="0px"
	 width="400px" height="400px" viewBox="0 0 400 400" enable-background="new 0 0 400 400" xml:space="preserve">
<path d="M376.733,160.955L224.574,8.794C220.955,5.178,207.588,0,201.871,0c-0.728,0-1.35,0.075-1.889,0.227
	C199.442,0.075,198.82,0,198.092,0c-5.721,0-19.086,5.179-22.699,8.795L23.231,160.955c-8.074,8.077-8.074,21.216,0,29.29
	c3.908,3.909,9.11,6.061,14.647,6.061c5.536,0,10.738-2.153,14.647-6.061L181.027,61.74v317.544
	c0,11.422,9.293,20.716,20.715,20.716c11.421,0,20.714-9.293,20.714-20.716V65.224l125.021,125.021
	c3.908,3.909,9.111,6.061,14.647,6.061c5.536,0,10.737-2.153,14.645-6.061c3.911-3.91,6.061-9.112,6.056-14.65
	C382.819,170.056,380.655,164.856,376.733,160.955z"/>
</svg>
