<?xml version="1.0" encoding="utf-8"?>
<!-- Generator: Adobe Illustrator 17.0.0, SVG Export Plug-In . SVG Version: 6.00 Build 0)  -->
<!DOCTYPE svg PUBLIC "-//W3C//DTD SVG 1.1//EN" "http://www.w3.org/Graphics/SVG/1.1/DTD/svg11.dtd">
<svg version="1.1" id="图层_1" xmlns="http://www.w3.org/2000/svg" xmlns:xlink="http://www.w3.org/1999/xlink" x="0px" y="0px"
	 width="400px" height="400px" viewBox="0 0 400 400" enable-background="new 0 0 400 400" xml:space="preserve">
<path d="M397.5,129.945c4.293-6.413,2.879-14.999-2.878-20.049c-6.464-4.999-14.999-3.585-20.049,2.879
	c-0.707,0.707-80.145,94.436-174.53,94.436c-91.558,0-174.531-94.436-175.288-95.143c-4.949-5.707-14.242-6.464-19.948-1.414
	c-5.757,4.999-6.464,14.292-1.464,19.998c1.413,2.121,18.584,21.463,45.804,42.926l-36.512,37.926
	c-5.706,5.706-4.999,14.999,0.707,20.049c1.414,2.878,5,4.292,8.586,4.292c3.585,0,7.171-1.414,9.999-4.292l39.34-40.755
	c18.584,12.877,40.754,25.049,65.096,33.633l-14.999,50.804c-2.172,7.878,2.171,15.757,9.999,17.878h4.293
	c6.413,0,12.17-4.293,13.584-10.707l14.999-50.804c11.464,2.172,23.584,3.586,35.755,3.586c12.171,0,24.341-1.414,35.755-3.586
	l14.999,50.097c1.414,6.464,7.878,10.707,13.585,10.707c1.414,0,2.879,0,3.585-0.707c7.878-2.121,12.171-9.999,10-17.878
	l-14.999-50.096c24.342-8.585,46.511-20.756,65.096-33.634l38.632,40.048c2.879,2.878,6.464,4.292,10,4.292
	c3.586,0,7.171-1.414,9.999-4.292c5.706-5.707,5.706-14.292,0.707-20.049l-36.462-37.926
	C380.33,150.701,397.5,129.945,397.5,129.945L397.5,129.945z M397.5,129.945"/>
</svg>
