<?xml version="1.0" encoding="utf-8"?>
<!-- Generator: Adobe Illustrator 17.0.0, SVG Export Plug-In . SVG Version: 6.00 Build 0)  -->
<!DOCTYPE svg PUBLIC "-//W3C//DTD SVG 1.1//EN" "http://www.w3.org/Graphics/SVG/1.1/DTD/svg11.dtd">
<svg version="1.1" id="图层_1" xmlns="http://www.w3.org/2000/svg" xmlns:xlink="http://www.w3.org/1999/xlink" x="0px" y="0px"
	 width="400px" height="400px" viewBox="0 0 400 400" enable-background="new 0 0 400 400" xml:space="preserve">
<g>
	<path fill="#040000" d="M370.085,129.13c-1.922,0-4.802,0.637-7.612,3.672l-11.929,15.927v175.692
		c0,9.852-5.634,21.278-15.07,30.562c-9.463,9.309-21.133,14.868-31.219,14.868H76.126c-21.624,0-47.22-24.626-47.22-45.43V100.757
		c0-21.22,25.596-46.336,47.22-46.336h181.1l1.108-1.192c0.332-0.219,0.852-0.551,1.494-0.963
		c4.805-3.085,10.133-6.578,12.545-8.989l0.422-0.422l0.308-0.511c2.318-3.851,1.893-7.05,1.129-9.055
		c-1.855-4.865-7.116-6.712-8.152-7.032l-0.705-0.219H76.126C34.15,26.037,0,59.557,0,100.757v223.664
		c0,41.201,34.15,74.722,76.126,74.722h228.129c41.972,0,76.119-33.52,76.119-74.722V136.393l-0.693-1.157
		C379.307,134.611,375.859,129.13,370.085,129.13z"/>
	<path fill="#040000" d="M396.129,52.688l-45.132-47.48c-2.628-2.765-6.312-4.351-10.107-4.351c-3.647,0-7.095,1.409-9.695,3.956
		l-21.507,20.882l-0.848,0.831L117.889,211.973c-1.335,1.308-2.419,2.909-3.124,4.604L82.02,294.023
		c-2.211,5.198-1.124,11.188,2.75,15.241c2.544,2.691,6.119,4.278,9.802,4.351l0.293,0.003c1.715,0,3.395-0.311,4.995-0.925
		l77.881-29.967c1.808-0.699,3.395-1.73,4.718-3.061L394.88,73.36l0.869-0.829c2.666-2.616,4.174-6.109,4.248-9.835
		C400.071,59.035,398.669,55.396,396.129,52.688z M151.149,235.174c-1.838,1.819-2.852,4.238-2.853,6.811
		c-0.002,2.575,1.01,4.999,2.914,6.888c1.856,1.775,4.27,2.752,6.795,2.752c2.58,0,5.014-0.992,6.855-2.795L365.554,52.086
		l8.023,7.894L163.302,266.154l-28.28,11.184l-14.536-14.281l9.827-29.329L340.558,27.565l11.177,10.956L151.149,235.174z"/>
</g>
</svg>
