<svg version="1" xmlns="http://www.w3.org/2000/svg" width="400" height="400" viewBox="-100 -100 400 400"><path d="M295 133L135 273a56 56 0 0 1-70 0L-94 134a23 23 0 0 1 11-37l5-1h47V-49c0-21 16-36 37-36h188c21 0 37 15 37 36V96h47a23 23 0 0 1 17 37zM151 71c8 0 13-7 13-15s-5-14-13-14h-32l33-34c6-5 6-15 0-21s-16-6-22 0l-30 31-31-31c-6-6-15-6-21 0S42 3 48 9l33 33H49c-8 0-13 6-13 14s5 15 13 15h33v18H49c-8 0-13 6-13 14s5 15 13 15h33v22c0 10 8 18 18 18s18-8 18-18v-22h34c8 0 12-5 12-14 0-11-6-15-14-15h-32V71h33z"/></svg>