<?xml version="1.0" encoding="utf-8"?>
<!-- Generator: Adobe Illustrator 17.0.0, SVG Export Plug-In . SVG Version: 6.00 Build 0)  -->
<!DOCTYPE svg PUBLIC "-//W3C//DTD SVG 1.1//EN" "http://www.w3.org/Graphics/SVG/1.1/DTD/svg11.dtd">
<svg version="1.1" id="图层_1" xmlns="http://www.w3.org/2000/svg" xmlns:xlink="http://www.w3.org/1999/xlink" x="0px" y="0px"
	 width="400px" height="400px" viewBox="106 196 400 400" enable-background="new 106 196 400 400" xml:space="preserve">
<g>
	<g>
		<path d="M258.485,230.09H141.198c-16.073,0-29.153,13.047-29.153,29.076v116.565c0,16.03,13.081,29.067,29.153,29.067h117.306
			c15.799,0,29.149-13.316,29.149-29.067V259.157C287.629,243.402,274.274,230.09,258.485,230.09z M140.553,259.167
			c0-0.318,0.289-0.572,0.645-0.572h117.306c0.207,0,0.616,0.375,0.645,0.572l-0.01,116.551c-0.034,0.216-0.443,0.572-0.654,0.572
			H141.198c-0.356,0-0.645-0.303-0.645-0.558V259.167z"/>
		<path d="M258.485,421.319H141.198c-15.803,0-29.153,13.307-29.153,29.048v116.585c0,16.02,13.081,29.048,29.153,29.048h117.306
			c15.799,0,29.149-13.307,29.149-29.048V450.357C287.629,434.616,274.274,421.319,258.485,421.319z M141.198,449.818l117.229-0.01
			c0.231,0.058,0.664,0.462,0.722,0.558l-0.01,116.565c-0.038,0.212-0.447,0.558-0.654,0.558H141.198
			c-0.346,0-0.645-0.298-0.645-0.539l-0.005-116.565C140.587,450.174,140.991,449.818,141.198,449.818z"/>
		<path d="M449.694,421.319H332.398c-15.799,0-29.153,13.307-29.153,29.048v116.585c0,16.02,13.076,29.048,29.153,29.048h117.297
			c16.078,0,29.153-13.028,29.153-29.048V450.367C478.848,434.626,465.493,421.319,449.694,421.319z M331.753,450.386
			c0.029-0.212,0.433-0.568,0.645-0.568h117.297c0.212,0,0.625,0.356,0.654,0.548v116.585c0,0.289-0.298,0.539-0.654,0.539H332.398
			c-0.346,0-0.645-0.298-0.645-0.539L331.753,450.386L331.753,450.386z"/>
	</g>
	<path d="M498.001,320.034l-47.214-110.331c-4.706-11.179-18.637-16.752-29.536-12.002l-111.123,47.068
		c-11.267,4.868-16.503,18.195-11.664,29.756l47.199,110.299c3.501,8.398,11.693,13.828,20.857,13.828
		c3.03,0,5.957-0.604,8.679-1.78l111.123-47.069c5.517-2.383,9.929-7.029,12.106-12.708
		C500.606,331.432,500.444,325.299,498.001,320.034z"/>
</g>
</svg>
