<?xml version="1.0" encoding="utf-8"?>
<!-- Generator: Adobe Illustrator 17.0.0, SVG Export Plug-In . SVG Version: 6.00 Build 0)  -->
<!DOCTYPE svg PUBLIC "-//W3C//DTD SVG 1.1//EN" "http://www.w3.org/Graphics/SVG/1.1/DTD/svg11.dtd">
<svg version="1.1" id="图层_1" xmlns="http://www.w3.org/2000/svg" xmlns:xlink="http://www.w3.org/1999/xlink" x="0px" y="0px"
	 width="200px" height="200px" viewBox="0 0 200 200" enable-background="new 0 0 200 200" xml:space="preserve">
<g>
	<g>
		<defs>
			<rect id="SVGID_1_" x="14.829" width="170.341" height="200"/>
		</defs>
		<clipPath id="SVGID_2_">
			<use xlink:href="#SVGID_1_"  overflow="visible"/>
		</clipPath>
		<path clip-path="url(#SVGID_2_)" d="M177.886,72.407H21.919c-3.905,0-7.089,3.574-7.089,7.958v23.869
			c0,4.383,3.185,7.957,7.089,7.957h14.179c-3.905,0-7.089,3.574-7.089,7.958v71.61c0,4.383,3.185,7.958,7.089,7.958h127.611
			c3.905,0,7.089-3.575,7.089-7.958v-71.611c0-4.383-3.185-7.956-7.089-7.956h14.18c3.904,0,7.088-3.575,7.088-7.957v-23.87
			C184.975,75.981,181.792,72.407,177.886,72.407L177.886,72.407z M85.724,80.365h28.358v31.826H85.724V80.365z M85.724,191.758
			v-71.611h28.358v71.611H85.724z M85.724,191.758"/>
		<path clip-path="url(#SVGID_2_)" d="M56.723,63.38h31.473c1.134,0.623,2.368,1.071,3.75,1.071h15.912
			c1.381,0,2.617-0.448,3.751-1.071h35.335l0.221-0.221c12.231-2.206,55.131-21.144,20.139-56.137
			c-10.381-10.381-18.975-7.32-24.236-0.723c-11.187,14.024-23.576,29.371-29.518,36.719c-1.448-1.493-3.455-2.437-5.692-2.437
			H91.946c-1.565,0-2.943,0.573-4.176,1.358l-0.789-0.611c-6.334-7.837-17.732-21.967-28.152-35.029
			c-5.26-6.596-13.854-9.658-24.236,0.723C-2.703,44.319,48.494,63.38,56.723,63.38L56.723,63.38z M56.723,63.38"/>
	</g>
</g>
</svg>
