<svg version="1" xmlns="http://www.w3.org/2000/svg" width="400" height="400" viewBox="-100 -100 400 400"><path d="M298-17c-1-4-5-8-10-9-4 0-8 1-11 4L261-6l-20 21c-4 3-8 6-13 7-3 1-7 0-10-1l-8-6-21-21c-3-3-6-7-7-12s0-10 3-14l6-8 16-17 16-16 6-9c2-5 1-10-2-13l-8-4a76 76 0 0 0-31 1l-14 4-15 7-12 8-9 8a94 94 0 0 0-26 65l1 12c1 3 0 6-2 9h-1L-82 207a58 58 0 0 0-16 37c-1 6 0 12 2 17a57 57 0 0 0 26 33c5 3 11 5 16 6h20l16-5c4-3 9-5 12-9l5-4 150-151 41-41c2-2 5-3 8-3h14l14-2 15-5c8-2 15-6 22-11l8-7c6-5 11-12 15-18 6-10 10-22 12-33l1-9V-8l-1-9zM-26 268a28 28 0 1 1-19-48h-1c16 0 29 13 28 28 0 8-3 15-8 20z"/><path d="M289 267l-14-23-13-19-6-8c-2-4-6-6-10-9l-13-4-5-1-7-5-11-11-35-35-9-9h-1l-23 22h1l56 56 3 6 2 7c2 7 5 14 11 19l10 9a231 231 0 0 0 25 18l12 7 8 4 10 5h6c4-1 7-3 9-6 3-5 3-10 0-14l-6-9zM7 72l8 8h2l5-4 10-10-4-3L-73-39l-2-2-2-5a6 6 0 0 1 9-5l4 4 25 25 75 75 2 2 2 2 18-18-9-8-85-85-11-11c-3-2-4-4-3-7 0-3 3-5 7-5l6 5L41 6l20 20 5 5 15-15-5-4L63-2 52-12 42-22 32-33 15-50-5-70l-8-8-8-7a47 47 0 0 0-23-14l-5-1h-13c-10 3-19 8-25 16-4 4-7 8-9 13-2 3-3 7-3 11v14c2 10 7 19 14 26L7 72zM142 165z"/></svg>