<?xml version="1.0" encoding="utf-8"?>
<!-- Generator: Adobe Illustrator 17.0.0, SVG Export Plug-In . SVG Version: 6.00 Build 0)  -->
<!DOCTYPE svg PUBLIC "-//W3C//DTD SVG 1.1//EN" "http://www.w3.org/Graphics/SVG/1.1/DTD/svg11.dtd">
<svg version="1.1" id="图层_1" xmlns="http://www.w3.org/2000/svg" xmlns:xlink="http://www.w3.org/1999/xlink" x="0px" y="0px"
	 width="400px" height="400px" viewBox="0 0 400 400" enable-background="new 0 0 400 400" xml:space="preserve">
<g>
	<g>
		<path d="M200.001,0C90,0,0,90,0,200.001C0,310,90,400,200.001,400C310,400,400,310,400,200.001C400,90,310,0,200.001,0L200.001,0z
			 M40.001,200.001c0-88.002,71.999-160,160-160c35.999,0,70,11.999,98,33.999L74,298.001C52,270.001,40.001,236,40.001,200.001
			L40.001,200.001z M200.001,360.001C164,360.001,129.999,348,102,326L326,102c21.999,28,34,62,34,98.002
			C360.001,288,288,360.001,200.001,360.001L200.001,360.001z M200.001,360.001"/>
	</g>
</g>
</svg>
