<?xml version="1.0" encoding="utf-8"?>
<!-- Generator: Adobe Illustrator 17.0.0, SVG Export Plug-In . SVG Version: 6.00 Build 0)  -->
<!DOCTYPE svg PUBLIC "-//W3C//DTD SVG 1.1//EN" "http://www.w3.org/Graphics/SVG/1.1/DTD/svg11.dtd">
<svg version="1.1" id="图层_1" xmlns="http://www.w3.org/2000/svg" xmlns:xlink="http://www.w3.org/1999/xlink" x="0px" y="0px"
	 width="400px" height="400px" viewBox="0 0 400 400" enable-background="new 0 0 400 400" xml:space="preserve">
<g>
	<g opacity="0.15">
		<path fill="#040000" d="M96.963,252.761c3.532-2.078,8.069-0.905,10.143,2.626c2.081,3.522,0.902,8.061-2.627,10.143
			c-3.528,2.074-8.064,0.898-10.142-2.627C92.259,259.375,93.439,254.832,96.963,252.761z"/>
		<path fill="#040000" d="M67.969,265.808c5.174-3.045,11.833-1.317,14.881,3.857c3.041,5.174,1.317,11.837-3.858,14.882
			c-5.17,3.048-11.836,1.319-14.884-3.854C61.067,275.518,62.788,268.863,67.969,265.808z"/>
		<path fill="#040000" d="M32.931,281.278c7.293-4.293,16.674-1.858,20.967,5.428c4.293,7.286,1.855,16.674-5.431,20.97
			c-7.29,4.283-16.671,1.855-20.964-5.427C23.213,294.956,25.641,285.565,32.931,281.278z"/>
	</g>
	<g opacity="0.15">
		<path fill="#040000" d="M86.193,220.18c3.977-0.942,7.979,1.509,8.925,5.49c0.96,3.97-1.501,7.975-5.476,8.925
			c-3.984,0.953-7.986-1.502-8.939-5.479C79.757,225.135,82.21,221.137,86.193,220.18z"/>
		<path fill="#040000" d="M54.645,224.168c5.839-1.392,11.699,2.209,13.101,8.047c1.388,5.84-2.212,11.703-8.044,13.095
			c-5.843,1.399-11.702-2.205-13.101-8.045C45.202,231.434,48.809,225.571,54.645,224.168z"/>
		<path fill="#040000" d="M16.612,228.691c8.226-1.961,16.493,3.106,18.461,11.339c1.968,8.222-3.109,16.486-11.339,18.45
			c-8.219,1.972-16.486-3.106-18.454-11.332C3.316,238.923,8.39,230.662,16.612,228.691z"/>
	</g>
	<g opacity="0.15">
		<path fill="#040000" d="M85.432,185.886c4.094,0.254,7.194,3.772,6.937,7.859c-0.254,4.074-3.775,7.187-7.862,6.933
			c-4.083-0.261-7.19-3.782-6.933-7.862C77.834,188.728,81.349,185.625,85.432,185.886z"/>
		<path fill="#040000" d="M54.107,180.461c5.986,0.367,10.54,5.527,10.167,11.524c-0.381,5.986-5.538,10.533-11.525,10.16
			c-6-0.367-10.547-5.531-10.177-11.524C42.953,184.63,48.11,180.081,54.107,180.461z"/>
		<path fill="#040000" d="M16.414,173.634c8.439,0.532,14.86,7.804,14.329,16.239c-0.525,8.452-7.8,14.864-16.242,14.329
			c-8.439-0.525-14.847-7.797-14.326-16.242C0.706,179.525,7.976,173.11,16.414,173.634z"/>
	</g>
	<g opacity="0.15">
		<path fill="#040000" d="M94.762,152.866c3.827,1.444,5.767,5.713,4.324,9.542c-1.444,3.833-5.713,5.774-9.549,4.327
			c-3.823-1.444-5.764-5.713-4.324-9.546C86.653,153.36,90.932,151.426,94.762,152.866z"/>
		<path fill="#040000" d="M66.396,138.503c5.613,2.102,8.459,8.38,6.343,13.997c-2.112,5.616-8.383,8.455-14.006,6.34
			c-5.62-2.112-8.452-8.384-6.337-13.993C54.508,139.223,60.769,136.384,66.396,138.503z"/>
		<path fill="#040000" d="M32.354,120.944c7.914,2.972,11.922,11.816,8.939,19.726c-2.97,7.913-11.806,11.912-19.716,8.939
			c-7.924-2.976-11.922-11.816-8.946-19.723C15.608,121.969,24.437,117.968,32.354,120.944z"/>
	</g>
	<g opacity="0.15">
		<path fill="#040000" d="M113.346,124.033c3.244,2.493,3.844,7.149,1.341,10.387c-2.493,3.244-7.16,3.847-10.393,1.347
			c-3.237-2.503-3.84-7.152-1.341-10.392C105.453,122.127,110.109,121.527,113.346,124.033z"/>
		<path fill="#040000" d="M90.438,101.983c4.746,3.662,5.63,10.495,1.961,15.241c-3.662,4.753-10.492,5.64-15.241,1.965
			c-4.755-3.659-5.63-10.488-1.971-15.241C78.856,99.189,85.676,98.314,90.438,101.983z"/>
		<path fill="#040000" d="M63.035,75.228c6.689,5.16,7.938,14.778,2.767,21.477c-5.16,6.69-14.785,7.938-21.475,2.767
			c-6.703-5.164-7.938-14.782-2.777-21.478C46.721,71.302,56.343,70.06,63.035,75.228z"/>
	</g>
	<g opacity="0.4">
		<path fill="#040000" d="M139.563,101.911c2.369,3.329,1.581,7.951-1.756,10.321c-3.336,2.369-7.968,1.581-10.337-1.766
			c-2.359-3.333-1.574-7.965,1.762-10.331C132.571,97.769,137.2,98.561,139.563,101.911z"/>
		<path fill="#040000" d="M124.123,74.11c3.463,4.896,2.304,11.681-2.592,15.155c-4.897,3.463-11.686,2.311-15.152-2.593
			c-3.463-4.899-2.317-11.678,2.589-15.148C113.857,68.055,120.653,69.21,124.123,74.11z"/>
		<path fill="#040000" d="M105.759,40.5c4.886,6.899,3.26,16.462-3.645,21.348c-6.899,4.89-16.461,3.257-21.351-3.645
			c-4.886-6.899-3.251-16.465,3.648-21.351C91.309,31.973,100.865,33.602,105.759,40.5z"/>
	</g>
	<g opacity="0.65">
		<path fill="#040000" d="M171.115,88.428c1.289,3.888-0.823,8.072-4.704,9.361c-3.885,1.286-8.075-0.829-9.364-4.718
			c-1.282-3.878,0.827-8.069,4.715-9.357C165.642,82.431,169.833,84.544,171.115,88.428z"/>
		<path fill="#040000" d="M164.487,57.326c1.883,5.699-1.213,11.846-6.908,13.733c-5.703,1.879-11.844-1.211-13.729-6.913
			c-1.883-5.702,1.207-11.846,6.909-13.728C156.46,48.538,162.605,51.624,164.487,57.326z"/>
		<path fill="#040000" d="M156.779,19.815c2.654,8.027-1.711,16.699-9.741,19.342c-8.02,2.658-16.692-1.701-19.342-9.734
			c-2.654-8.03,1.714-16.695,9.741-19.349C145.461,7.427,154.132,11.788,156.779,19.815z"/>
	</g>
	<g>
		<path fill="#040000" d="M205.235,84.787c0.086,4.087-3.154,7.474-7.252,7.571c-4.088,0.086-7.482-3.158-7.564-7.255
			c-0.089-4.083,3.151-7.468,7.252-7.567C201.755,77.446,205.146,80.686,205.235,84.787z"/>
		<path fill="#040000" d="M208.005,53.109c0.127,5.997-4.626,10.972-10.632,11.102c-6,0.131-10.969-4.629-11.099-10.622
			c-0.134-6.01,4.626-10.983,10.626-11.113C202.904,42.349,207.872,47.101,208.005,53.109z"/>
		<path fill="#040000" d="M211.623,14.98c0.188,8.452-6.529,15.464-14.978,15.642c-8.455,0.189-15.464-6.521-15.645-14.977
			c-0.182-8.448,6.525-15.454,14.977-15.642C204.436-0.175,211.431,6.529,211.623,14.98z"/>
	</g>
	<g opacity="0.65">
		<path fill="#040000" d="M238.913,91.295c-1.111,3.937-5.199,6.22-9.135,5.116c-3.946-1.114-6.234-5.206-5.116-9.149
			c1.107-3.936,5.201-6.216,9.144-5.112C237.74,83.268,240.031,87.352,238.913,91.295z"/>
		<path fill="#040000" d="M250.852,61.821c-1.639,5.777-7.65,9.137-13.421,7.502c-5.777-1.632-9.137-7.636-7.502-13.42
			c1.632-5.774,7.639-9.131,13.417-7.503C249.124,50.033,252.484,56.04,250.852,61.821z"/>
		<path fill="#040000" d="M265.479,26.429c-2.301,8.133-10.777,12.869-18.903,10.561c-8.147-2.293-12.879-10.756-10.568-18.893
			c2.294-8.14,10.763-12.879,18.893-10.578C263.034,9.827,267.773,18.289,265.479,26.429z"/>
	</g>
	<g opacity="0.4">
		<path fill="#040000" d="M269.216,107.39c-2.218,3.436-6.8,4.43-10.242,2.212c-3.432-2.218-4.43-6.81-2.205-10.252
			c2.215-3.432,6.803-4.42,10.242-2.201C270.451,99.367,271.438,103.951,269.216,107.39z"/>
		<path fill="#040000" d="M289.261,82.699c-3.264,5.054-9.981,6.501-15.028,3.244c-5.048-3.251-6.501-9.978-3.247-15.021
			c3.264-5.048,9.988-6.505,15.025-3.244C291.058,70.935,292.519,77.656,289.261,82.699z"/>
		<path fill="#040000" d="M313.613,53.142c-4.585,7.111-14.065,9.158-21.166,4.578c-7.111-4.591-9.158-14.068-4.567-21.17
			c4.578-7.111,14.068-9.161,21.163-4.577C316.146,36.558,318.193,46.038,313.613,53.142z"/>
	</g>
	<g opacity="0.15">
		<path fill="#040000" d="M293.472,131.656c-3.123,2.637-7.794,2.246-10.441-0.888c-2.637-3.127-2.239-7.807,0.895-10.444
			c3.121-2.64,7.797-2.242,10.438,0.888C297.003,124.346,296.606,129.015,293.472,131.656z"/>
		<path fill="#040000" d="M319.87,113.915c-4.598,3.871-11.449,3.296-15.32-1.299c-3.867-4.585-3.288-11.438,1.303-15.317
			c4.588-3.871,11.442-3.285,15.316,1.303C325.037,103.193,324.451,110.048,319.87,113.915z"/>
		<path fill="#040000" d="M351.809,92.793c-6.46,5.459-16.129,4.633-21.577-1.831c-5.456-6.463-4.633-16.133,1.831-21.581
			c6.467-5.448,16.136-4.628,21.591,1.835C359.092,77.68,358.273,87.339,351.809,92.793z"/>
	</g>
	<g opacity="0.15">
		<path fill="#040000" d="M309.553,161.953c-3.758,1.608-8.103-0.138-9.717-3.902c-1.615-3.765,0.14-8.123,3.916-9.728
			c3.751-1.598,8.102,0.151,9.71,3.916C315.07,156,313.325,160.355,309.553,161.953z"/>
		<path fill="#040000" d="M339.987,152.739c-5.524,2.356-11.905-0.216-14.26-5.739c-2.352-5.514,0.202-11.908,5.733-14.261
			c5.517-2.359,11.908,0.209,14.263,5.733C348.076,143.996,345.517,150.373,339.987,152.739z"/>
		<path fill="#040000" d="M376.72,141.898c-7.77,3.319-16.777-0.295-20.093-8.082c-3.323-7.766,0.295-16.78,8.068-20.089
			c7.783-3.319,16.784,0.298,20.1,8.075C388.111,129.567,384.496,138.572,376.72,141.898z"/>
	</g>
	<g opacity="0.15">
		<path fill="#040000" d="M316.057,195.637c-4.063,0.435-7.715-2.503-8.15-6.576c-0.439-4.063,2.52-7.718,6.59-8.147
			c4.063-0.435,7.708,2.507,8.146,6.583C323.07,191.563,320.124,195.209,316.057,195.637z"/>
		<path fill="#040000" d="M347.859,195.737c-5.973,0.638-11.325-3.682-11.956-9.652c-0.641-5.97,3.679-11.325,9.656-11.957
			c5.97-0.641,11.315,3.68,11.963,9.649C358.15,189.75,353.832,195.103,347.859,195.737z"/>
		<path fill="#040000" d="M386.153,196.138c-8.404,0.892-15.951-5.201-16.846-13.613c-0.898-8.403,5.195-15.957,13.602-16.846
			c8.408-0.891,15.961,5.201,16.86,13.613C400.66,187.689,394.567,195.24,386.153,196.138z"/>
	</g>
	<g opacity="0.15">
		<path fill="#040000" d="M312.406,229.754c-4.015-0.771-6.635-4.659-5.86-8.678c0.772-4.019,4.66-6.649,8.689-5.867
			c4.008,0.782,6.632,4.66,5.86,8.686C320.309,227.912,316.421,230.532,312.406,229.754z"/>
		<path fill="#040000" d="M342.785,239.166c-5.898-1.145-9.748-6.847-8.603-12.738c1.135-5.894,6.833-9.748,12.735-8.603
			c5.897,1.135,9.741,6.84,8.599,12.735C354.381,236.447,348.686,240.304,342.785,239.166z"/>
		<path fill="#040000" d="M379.281,250.765c-8.294-1.608-13.732-9.645-12.114-17.953c1.602-8.295,9.639-13.733,17.94-12.121
			c8.298,1.608,13.726,9.648,12.121,17.947C395.623,246.932,387.586,252.37,379.281,250.765z"/>
	</g>
	<g opacity="0.15">
		<path fill="#040000" d="M298.924,261.306c-3.618-1.92-4.982-6.401-3.065-10.016c1.916-3.617,6.409-4.992,10.022-3.072
			c3.607,1.923,4.979,6.408,3.065,10.029C307.019,261.854,302.534,263.226,298.924,261.306z"/>
		<path fill="#040000" d="M325.206,279.204c-5.295-2.825-7.307-9.405-4.489-14.706c2.808-5.301,9.395-7.314,14.7-4.492
			c5.304,2.819,7.31,9.388,4.491,14.693C337.096,279.996,330.513,282.019,325.206,279.204z"/>
		<path fill="#040000" d="M356.716,300.98c-7.468-3.967-10.307-13.245-6.337-20.713c3.964-7.465,13.239-10.307,20.706-6.337
			c7.465,3.971,10.304,13.252,6.34,20.717C373.455,302.105,364.178,304.951,356.716,300.98z"/>
	</g>
	<g opacity="0.15">
		<path fill="#040000" d="M276.783,287.515c-2.887-2.894-2.883-7.585,0.01-10.471c2.89-2.901,7.585-2.89,10.486,0.007
			c2.89,2.89,2.876,7.578-0.014,10.478C284.365,290.416,279.681,290.409,276.783,287.515z"/>
		<path fill="#040000" d="M296.681,312.326c-4.238-4.245-4.238-11.129,0.007-15.372c4.241-4.241,11.134-4.244,15.375,0.011
			c4.245,4.241,4.238,11.12-0.007,15.375C307.808,316.575,300.926,316.568,296.681,312.326z"/>
		<path fill="#040000" d="M320.419,342.38c-5.97-5.98-5.977-15.676,0.018-21.656c5.976-5.973,15.676-5.979,21.646,0.007
			c5.979,5.983,5.973,15.69-0.011,21.66C336.099,348.363,326.399,348.366,320.419,342.38z"/>
	</g>
	<g opacity="0.15">
		<path fill="#040000" d="M247.944,306.089c-1.913-3.604-0.532-8.088,3.072-10.005c3.618-1.92,8.106-0.545,10.023,3.079
			c1.92,3.607,0.538,8.092-3.079,10.009C254.342,311.085,249.865,309.71,247.944,306.089z"/>
		<path fill="#040000" d="M259.698,335.646c-2.808-5.307-0.792-11.884,4.516-14.696c5.301-2.818,11.884-0.795,14.689,4.512
			c2.822,5.301,0.799,11.877-4.509,14.693C269.093,342.966,262.516,340.947,259.698,335.646z"/>
		<path fill="#040000" d="M273.598,371.336c-3.967-7.471-1.124-16.742,6.347-20.703c7.472-3.957,16.75-1.128,20.704,6.343
			c3.963,7.475,1.118,16.756-6.35,20.713C286.837,381.65,277.552,378.804,273.598,371.336z"/>
	</g>
	<g opacity="0.15">
		<path fill="#040000" d="M214.928,315.409c-0.772-4.012,1.855-7.89,5.87-8.675c4.019-0.771,7.903,1.859,8.678,5.88
			c0.775,4.015-1.855,7.894-5.873,8.672C219.581,322.06,215.703,319.427,214.928,315.409z"/>
		<path fill="#040000" d="M217.513,347.108c-1.142-5.901,2.712-11.592,8.617-12.728c5.887-1.142,11.596,2.709,12.724,8.617
			c1.138,5.891-2.719,11.586-8.62,12.724C224.347,356.86,218.648,353.006,217.513,347.108z"/>
		<path fill="#040000" d="M220.339,385.298c-1.598-8.294,3.83-16.335,12.141-17.926c8.301-1.608,16.341,3.83,17.933,12.134
			c1.605,8.301-3.844,16.332-12.141,17.929C229.974,399.041,221.94,393.603,220.339,385.298z"/>
	</g>
	<g opacity="0.15">
		<path fill="#040000" d="M180.626,314.641c0.439-4.06,4.087-7.002,8.153-6.566c4.07,0.433,7.015,4.084,6.576,8.161
			c-0.435,4.066-4.08,7.001-8.157,6.569C183.129,322.362,180.191,318.718,180.626,314.641z"/>
		<path fill="#040000" d="M173.813,345.702c0.641-5.966,5.993-10.29,11.967-9.638c5.97,0.631,10.29,5.997,9.641,11.967
			c-0.634,5.966-5.997,10.283-11.97,9.641C177.489,357.034,173.172,351.682,173.813,345.702z"/>
		<path fill="#040000" d="M165.331,383.052c0.895-8.401,8.452-14.494,16.859-13.592c8.408,0.909,14.501,8.455,13.596,16.863
			c-0.902,8.408-8.462,14.487-16.867,13.589C170.518,399.017,164.425,391.466,165.331,383.052z"/>
	</g>
	<g opacity="0.15">
		<path fill="#040000" d="M148.063,303.857c1.608-3.748,5.952-5.493,9.717-3.878c3.765,1.595,5.506,5.953,3.898,9.724
			c-1.605,3.754-5.959,5.489-9.724,3.888C148.187,311.977,146.448,307.629,148.063,303.857z"/>
		<path fill="#040000" d="M132.441,331.568c2.359-5.52,8.754-8.081,14.263-5.719c5.531,2.359,8.085,8.75,5.716,14.271
			c-2.352,5.517-8.74,8.075-14.264,5.716C132.644,343.477,130.082,337.089,132.441,331.568z"/>
		<path fill="#040000" d="M113.394,364.79c3.315-7.767,12.32-11.38,20.096-8.051c7.773,3.323,11.391,12.327,8.057,20.096
			c-3.322,7.78-12.333,11.387-20.102,8.054C113.675,381.571,110.062,372.567,113.394,364.79z"/>
	</g>
	<g opacity="0.15">
		<path fill="#040000" d="M120.077,284.018c2.64-3.127,7.307-3.515,10.427-0.878c3.137,2.643,3.528,7.317,0.881,10.448
			c-2.64,3.12-7.31,3.508-10.434,0.874C117.828,291.812,117.437,287.138,120.077,284.018z"/>
		<path fill="#040000" d="M97.022,305.932c3.882-4.585,10.739-5.168,15.324-1.282c4.584,3.867,5.163,10.722,1.286,15.313
			c-3.875,4.584-10.726,5.161-15.324,1.286C93.727,317.377,93.154,310.519,97.022,305.932z"/>
		<path fill="#040000" d="M69.084,332.118c5.449-6.46,15.115-7.276,21.574-1.814c6.46,5.455,7.276,15.121,1.817,21.574
			c-5.456,6.46-15.128,7.273-21.581,1.817C64.438,348.236,63.622,338.574,69.084,332.118z"/>
	</g>
</g>
</svg>
