<?xml version="1.0" encoding="utf-8"?>
<!-- Generator: Adobe Illustrator 17.1.0, SVG Export Plug-In . SVG Version: 6.00 Build 0)  -->
<!DOCTYPE svg PUBLIC "-//W3C//DTD SVG 1.1//EN" "http://www.w3.org/Graphics/SVG/1.1/DTD/svg11.dtd">
<svg version="1.1" id="图层_1" xmlns="http://www.w3.org/2000/svg" xmlns:xlink="http://www.w3.org/1999/xlink" x="0px" y="0px"
	 viewBox="0 0 400 400" enable-background="new 0 0 400 400" xml:space="preserve">
<g>
	<path d="M200,0C89.72,0,0,89.72,0,200c0,110.281,89.72,200,200,200c110.281,0,200-89.719,200-200C400,89.72,310.281,0,200,0z
		 M200,398.91C90.321,398.91,1.09,309.679,1.09,200S90.321,1.09,200,1.09S398.91,90.321,398.91,200S309.679,398.91,200,398.91z"/>
	<path d="M303.859,334.521c-28.747,22.246-64.781,35.506-103.859,35.506c-39.056,0-75.071-13.246-103.81-35.469l-11.637,11.637
		c31.768,25.143,71.881,40.181,115.447,40.181c43.589,0,83.72-15.053,115.495-40.218L303.859,334.521z"/>
	<path d="M65.94,200c0,73.921,60.139,134.06,134.06,134.06S334.06,273.921,334.06,200S273.921,65.94,200,65.94
		S65.94,126.079,65.94,200z M332.97,200c0,73.32-59.65,132.97-132.97,132.97c-73.32,0-132.97-59.65-132.97-132.97
		c0-73.32,59.65-132.97,132.97-132.97C273.32,67.03,332.97,126.68,332.97,200z"/>
</g>
</svg>
