<?xml version="1.0" encoding="utf-8"?>
<!-- Generator: Adobe Illustrator 17.1.0, SVG Export Plug-In . SVG Version: 6.00 Build 0)  -->
<!DOCTYPE svg PUBLIC "-//W3C//DTD SVG 1.1//EN" "http://www.w3.org/Graphics/SVG/1.1/DTD/svg11.dtd">
<svg version="1.1" id="图层_1" xmlns="http://www.w3.org/2000/svg" xmlns:xlink="http://www.w3.org/1999/xlink" x="0px" y="0px"
	 viewBox="0 0 400 400" enable-background="new 0 0 400 400" xml:space="preserve">
<g>
	<path d="M328.735,270.06c-24.894,45.559-73.263,76.534-128.735,76.534c-80.832,0-146.594-65.762-146.594-146.594
		c0-80.832,65.762-146.594,146.594-146.594c24.707,0,48.001,6.152,68.444,16.992l4.214-7.627
		C250.964,51.238,226.235,44.687,200,44.687C114.36,44.687,44.687,114.36,44.687,200c0,85.641,69.673,155.313,155.313,155.313
		c58.88,0,110.197-32.942,136.528-81.357L328.735,270.06z"/>
	<path d="M311.172,200h10.899c0-64.008-49.521-116.663-112.262-121.676v10.942C266.532,94.249,311.172,142.005,311.172,200z"/>
</g>
</svg>
