<?xml version="1.0" standalone="no"?><!DOCTYPE svg PUBLIC "-//W3C//DTD SVG 1.1//EN" "http://www.w3.org/Graphics/SVG/1.1/DTD/svg11.dtd"><svg t="1589349304608" class="icon" viewBox="0 0 1024 1024" version="1.1" xmlns="http://www.w3.org/2000/svg" p-id="2200" xmlns:xlink="http://www.w3.org/1999/xlink" width="64" height="64"><defs><style type="text/css"></style></defs><path d="M886.4 128H135.872C96.32 128 64 160.32 64 199.872v624.256C64 863.68 96.32 896 135.872 896H886.4c39.488 0 71.872-32.32 71.872-71.872V199.872c0-39.552-32.384-71.872-71.872-71.872z m0 695.936l-0.128 0.128H136.064l-0.128-0.128V611.584l185.28-189.44 216.832 269.376a35.84 35.84 0 0 0 47.104 5.952l160.192-108.288 141.056 66.368v168.384z m0-258.816l-117.888-48.576a35.84 35.84 0 0 0-41.92-1.216l-155.52 104.96L349.44 345.6a36.16 36.16 0 0 0-52.672-1.408L135.872 508.736V199.936l0.064-0.064h750.272l0.064 0.064 0.128 365.184z m-189.632-291.584c-55.616 0-100.8 45.184-100.8 100.8 0 55.552 45.184 100.8 100.8 100.8s100.8-45.248 100.8-100.8c0-55.616-45.184-100.8-100.8-100.8z m0 129.728a28.992 28.992 0 1 1 0-57.92 28.992 28.992 0 0 1 0 57.92z" p-id="2201" fill="#2c2c2c"></path></svg>