<?xml version="1.0" encoding="utf-8"?>
<!-- Generator: Adobe Illustrator 17.0.0, SVG Export Plug-In . SVG Version: 6.00 Build 0)  -->
<!DOCTYPE svg PUBLIC "-//W3C//DTD SVG 1.1//EN" "http://www.w3.org/Graphics/SVG/1.1/DTD/svg11.dtd">
<svg version="1.1" id="图层_1" xmlns="http://www.w3.org/2000/svg" xmlns:xlink="http://www.w3.org/1999/xlink" x="0px" y="0px"
	 width="400px" height="400px" viewBox="0 0 400 400" enable-background="new 0 0 400 400" xml:space="preserve">
<g>
	<path d="M311.572,160.581l-28.123-0.702H121.612v-46.13c0-46.976,31.659-79.79,76.986-79.79c46.289,0,81.195,34.305,81.195,79.79
		v12.07h33.954v-12.07C313.747,51.027,262.724,0,200.002,0S86.253,51.027,86.253,113.749v46.236
		C65.5,161.5,49.086,178.871,49.086,200v85.621C50.544,349.757,100.82,400,163.537,400h73.633
		c62.722,0,113.744-51.032,113.744-113.754v-85.544C350.914,178.953,332.864,160.581,311.572,160.581z M315.555,203.502v80.647
		c0,44.768-36.427,81.195-81.195,81.195h-68.018c-44.768,0-81.195-36.427-81.195-81.195v-80.647c0-4.69,4.277-8.962,8.967-8.962
		h212.474C311.284,194.54,315.555,198.812,315.555,203.502z"/>
	<path d="M198.6,237.165c-13.325,0-24.545,11.218-24.545,24.543c0,7.713,4.208,21.739,8.415,32.957
		c3.507,9.116,7.715,16.128,16.13,16.128c9.815,0,13.323-7.012,16.128-16.128c4.206-11.219,8.415-25.244,8.415-32.957
		C223.143,248.383,211.923,237.165,198.6,237.165L198.6,237.165z M198.6,237.165"/>
</g>
</svg>
