<?xml version="1.0" encoding="utf-8"?>
<!-- Generator: Adobe Illustrator 17.0.0, SVG Export Plug-In . SVG Version: 6.00 Build 0)  -->
<!DOCTYPE svg PUBLIC "-//W3C//DTD SVG 1.1//EN" "http://www.w3.org/Graphics/SVG/1.1/DTD/svg11.dtd">
<svg version="1.1" id="图层_1" xmlns="http://www.w3.org/2000/svg" xmlns:xlink="http://www.w3.org/1999/xlink" x="0px" y="0px"
	 width="400px" height="400px" viewBox="106 196 400 400" enable-background="new 106 196 400 400" xml:space="preserve">
<g>
	<path d="M228.205,419.049H306c14.234,0,24.976-9.912,24.976-23.044S320.234,372.961,306,372.961h-77.795
		c-14.234,0-24.966,9.903-24.966,23.044S213.97,419.049,228.205,419.049z"/>
	<path d="M228.205,304.288h252.82c14.234,0,24.976-9.903,24.976-23.044S495.258,258.2,481.024,258.2h-252.82
		c-14.234,0-24.966,9.903-24.966,23.044S213.97,304.288,228.205,304.288z"/>
	<path d="M150.419,487.722h-19.454c-14.234,0-24.966,9.912-24.966,23.034c0,13.141,10.732,23.044,24.966,23.044h19.454
		c14.234,0,24.966-9.912,24.966-23.044C175.385,497.634,164.653,487.722,150.419,487.722z"/>
	<path d="M150.419,372.961h-19.454c-14.234,0-24.966,9.903-24.966,23.044s10.732,23.044,24.966,23.044h19.454
		c14.234,0,24.966-9.912,24.966-23.044S164.653,372.961,150.419,372.961z"/>
	<path d="M481.024,487.722h-252.82c-14.234,0-24.966,9.912-24.966,23.034c0,13.141,10.732,23.044,24.966,23.044h252.82
		c14.234,0,24.976-9.912,24.976-23.044C506,497.634,495.258,487.722,481.024,487.722z"/>
	<path d="M150.419,258.2h-19.454c-14.234,0-24.966,9.903-24.966,23.044s10.732,23.044,24.966,23.044h19.454
		c14.234,0,24.966-9.903,24.966-23.044S164.653,258.2,150.419,258.2z"/>
</g>
</svg>
