<?xml version="1.0" encoding="utf-8"?>
<!-- Generator: Adobe Illustrator 17.0.0, SVG Export Plug-In . SVG Version: 6.00 Build 0)  -->
<!DOCTYPE svg PUBLIC "-//W3C//DTD SVG 1.1//EN" "http://www.w3.org/Graphics/SVG/1.1/DTD/svg11.dtd">
<svg version="1.1" id="图层_1" xmlns="http://www.w3.org/2000/svg" xmlns:xlink="http://www.w3.org/1999/xlink" x="0px" y="0px"
	 width="400px" height="400px" viewBox="119.5 75.5 400 400" enable-background="new 119.5 75.5 400 400" xml:space="preserve">
<g>
	<path d="M319.5,75.5c-110.032,0-199.549,78.393-199.549,174.75c0,53.045,27.109,102.582,74.396,135.995V475.5l88.306-53.584
		c12.501,2.048,24.895,3.085,36.846,3.085c110.032,0,199.55-78.393,199.55-174.751C519.049,153.893,429.531,75.5,319.5,75.5z
		 M319.5,393.71c-10.384,0-21.202-0.92-32.156-2.736l-11.012-1.825l-50.693,30.76V369.98l-12.819-9.001
		c-39.133-27.473-61.578-67.833-61.578-110.729c0-79.103,75.48-143.458,168.257-143.458c92.78,0,168.259,64.355,168.259,143.458
		C487.759,329.354,412.279,393.71,319.5,393.71z"/>
	<path d="M233.5,220.398c-16.252,0-29.475,13.223-29.475,29.475s13.223,29.475,29.475,29.475s29.475-13.223,29.475-29.475
		S249.752,220.398,233.5,220.398z"/>
	<path d="M320.532,220.398c-16.252,0-29.475,13.223-29.475,29.475s13.223,29.475,29.475,29.475
		c16.253,0,29.476-13.223,29.476-29.475S336.786,220.398,320.532,220.398z"/>
	<path d="M407.564,221.325c-16.251,0-29.474,13.223-29.474,29.475c0,16.253,13.223,29.476,29.474,29.476
		c16.253,0,29.476-13.223,29.476-29.476C437.04,234.548,423.817,221.325,407.564,221.325z"/>
</g>
</svg>
