<?xml version="1.0" encoding="utf-8"?>
<!-- Generator: Adobe Illustrator 17.0.0, SVG Export Plug-In . SVG Version: 6.00 Build 0)  -->
<!DOCTYPE svg PUBLIC "-//W3C//DTD SVG 1.1//EN" "http://www.w3.org/Graphics/SVG/1.1/DTD/svg11.dtd">
<svg version="1.1" id="图层_1" xmlns="http://www.w3.org/2000/svg" xmlns:xlink="http://www.w3.org/1999/xlink" x="0px" y="0px"
	 width="400px" height="400px" viewBox="-100 -100 400 400" enable-background="new -100 -100 400 400" xml:space="preserve">
<path d="M206.247,271.972c0,3.911-2.607,5.432-6.518,5.432H-48.832c-3.911,0-8.039-1.521-8.039-5.432v-316.35
	c-0.435-7.605,4.563-6.084,9.995-6.084h27.594v10.429c0,3.911,4.563,7.605,8.908,7.605c3.911,0,8.908-3.476,8.908-7.605v-10.429
	h41.065v10.429c0,3.911,4.563,7.605,8.908,7.605c3.911,0,8.908-3.476,8.908-7.605v-10.429h37.588v10.429
	c0,3.911,4.563,7.605,8.908,7.605c3.911,0,8.908-3.476,8.908-7.605v-10.429h37.588v10.429c0,3.911,4.563,7.605,8.908,7.605
	c3.911,0,8.908-3.476,8.908-7.605v-10.429h31.505c3.911,0,6.518,1.955,6.518,6.084V7.768l23.031-22.596v-29.549
	c0-16.513-12.602-28.463-29.549-28.463H167.79v-19.555c0-3.911-4.563-7.605-8.908-7.605c-3.911,0-8.908,3.476-8.908,7.605v19.555
	H112.82v-19.555c0-3.911-4.563-7.605-8.908-7.605c-3.911,0-8.908,3.476-8.908,7.605v19.555H57.198v-19.555
	c0-3.911-4.563-7.605-8.908-7.605c-3.911,0-8.908,3.476-8.908,7.605v19.555H-1.683v-19.555c0-3.911-4.563-7.605-8.908-7.605
	c-3.911,0-8.908,3.476-8.908,7.605v19.555h-27.159c-22.596,0-33.677,11.95-33.677,28.463v315.915
	c0,16.513,14.992,28.463,31.939,28.463h247.909c16.947,0,29.549-11.95,29.549-28.463V162.466l-23.031,22.596v86.909H206.247z
	 M277.725,58.302l-29.938-29.311c-4.389-4.389-12.226-3.605-17.242,1.411l-16.615,16.301l45.455,45.141L276,75.544
	C281.016,70.528,281.8,62.534,277.725,58.302z M128.82,129.776l-10.815,11.912l-20.847,19.122c-0.784,0.313-2.194,2.508-2.508,4.389
	c-0.313,0.313-0.313,0.313-0.313,0.784L76.312,221.94c-0.784,1.881-0.313,3.292,0.784,4.389c1.097,1.097,2.821,1.097,4.389,0.784
	l57.054-17.712c0.313-0.313,0.313-0.313,0.784-0.313c2.194-0.313,3.605-1.881,3.919-2.194L252.176,99.212l-45.768-44.828
	L128.82,129.776L128.82,129.776z M104.996,210.655l-11.912-11.912l7.524-23.511l28.213,27.743L104.996,210.655L104.996,210.655z
	 M204.213,77.738l-85.11,83.857c-1.411,1.411-4.389,1.411-5.799,0c-1.881-1.411-1.881-4.389,0-5.799l85.424-83.857
	c1.411-1.411,4.389-1.411,5.799,0C205.937,73.82,205.937,76.328,204.213,77.738L204.213,77.738z M94.351,18.848
	c1.521-3.042,2.39-5.215,2.39-6.301c-0.435-4.128-2.825-6.518-6.953-6.953c-4.128,0-7.17,1.738-9.343,5.432l-35.85,53.666
	L8.963,11.027C6.79,7.333,3.748,5.595-0.38,5.595c-4.128,0.435-6.518,2.825-6.953,6.953c0.435,2.173,1.304,4.128,2.39,6.301
	c0.435,0.435,0.869,1.086,0.869,1.521l31.722,48.886H8.963c-5.649,0-8.474,2.39-8.474,6.953c0.435,3.694,3.259,5.649,8.474,6.301
	h27.159v13.905H8.963c-5.649,0-8.474,2.39-8.474,6.953c0.435,3.694,3.259,5.649,8.474,6.301h27.159v31.07
	c0,5.215,2.825,7.822,8.474,7.822c5.649,0,8.474-2.607,8.474-7.822v-31.07h27.159c5.215-0.435,8.039-2.607,8.474-6.301
	c0-4.563-2.825-6.953-8.474-6.953H53.287V82.509h27.159c5.215-0.435,8.039-2.607,8.474-6.301c0-4.563-2.825-6.953-8.474-6.953H61.76
	l31.722-48.886C93.482,19.718,93.7,19.283,94.351,18.848z"/>
</svg>
