<?xml version="1.0" encoding="utf-8"?>
<!-- Generator: Adobe Illustrator 17.0.0, SVG Export Plug-In . SVG Version: 6.00 Build 0)  -->
<!DOCTYPE svg PUBLIC "-//W3C//DTD SVG 1.1//EN" "http://www.w3.org/Graphics/SVG/1.1/DTD/svg11.dtd">
<svg version="1.1" id="图层_1" xmlns="http://www.w3.org/2000/svg" xmlns:xlink="http://www.w3.org/1999/xlink" x="0px" y="0px"
	 width="400px" height="400px" viewBox="0 0 400 400" enable-background="new 0 0 400 400" xml:space="preserve">
<g>
	<path d="M322.809,0.053h-10.421c-10.811,0-19.605,8.891-19.605,19.819s8.795,19.819,19.605,19.819h10.421
		c17.978,0,21.092,14.892,21.092,33.196v254.388c0,18.304-14.626,33.196-32.604,33.196H198.852h-2.309H88.703
		c-17.978,0-32.604-14.892-32.604-33.196V72.887c0-18.304,3.114-33.196,21.092-33.196h10.421c10.81,0,19.605-8.891,19.605-19.819
		S98.422,0.053,87.611,0.053H77.191c-39.569,0-60.247,32.649-60.247,72.78V327.22c0,40.131,32.191,72.78,71.759,72.78h107.84h2.309
		h112.445c39.568,0,71.759-32.649,71.759-72.78V72.833C383.056,32.702,362.378,0.053,322.809,0.053z"/>
	<path d="M166.57,39.638h64.51c10.839,0,19.658-8.891,19.658-19.819S241.943,0,231.132,0H166.57
		c-10.81,0-19.604,8.901-19.604,19.816c-0.041,5.251,1.974,10.205,5.674,13.951C156.338,37.511,161.277,39.597,166.57,39.638z"/>
	<path d="M268.737,107.414H126.558c-10.81,0-19.605,8.877-19.605,19.762c-0.085,10.844,8.697,19.737,19.605,19.824H268.79
		c5.224,0,10.138-2.053,13.834-5.78c3.729-3.755,5.757-8.732,5.717-13.985C288.339,116.305,279.545,107.414,268.737,107.414z"/>
	<path d="M268.737,176.758H126.558c-10.81,0-19.605,8.877-19.605,19.762c-0.085,10.844,8.697,19.736,19.605,19.823H268.79
		c5.223,0,10.136-2.053,13.835-5.781c3.728-3.756,5.756-8.732,5.716-13.985C288.339,185.649,279.545,176.758,268.737,176.758z"/>
	<path d="M268.737,246.986H126.558c-10.81,0-19.605,8.877-19.605,19.762c-0.085,10.844,8.697,19.736,19.605,19.823H268.79
		c5.223,0,10.136-2.053,13.835-5.781c3.728-3.756,5.756-8.732,5.716-13.985C288.339,255.877,279.545,246.986,268.737,246.986z"/>
</g>
</svg>
