<?xml version="1.0" encoding="utf-8"?>
<!-- Generator: Adobe Illustrator 17.0.0, SVG Export Plug-In . SVG Version: 6.00 Build 0)  -->
<!DOCTYPE svg PUBLIC "-//W3C//DTD SVG 1.1//EN" "http://www.w3.org/Graphics/SVG/1.1/DTD/svg11.dtd">
<svg version="1.1" id="图层_1" xmlns="http://www.w3.org/2000/svg" xmlns:xlink="http://www.w3.org/1999/xlink" x="0px" y="0px"
	 width="400px" height="400px" viewBox="0 0 400 400" enable-background="new 0 0 400 400" xml:space="preserve">
<g>
	<path d="M120.09,218.219h61.693v61.692c0,7.402,10.022,13.423,17.423,13.423h1.589c7.402,0,17.423-6.021,17.423-13.423v-61.692
		h61.692c7.402,0,13.423-10.022,13.423-17.423v-1.589c0-7.402-6.021-17.423-13.423-17.423h-61.692V120.09
		c0-7.402-10.022-13.423-17.423-13.423h-1.589c-7.402,0-17.423,6.021-17.423,13.423v61.693H120.09
		c-7.402,0-13.423,10.022-13.423,17.423v1.589C106.667,208.197,112.688,218.219,120.09,218.219z"/>
	<path d="M322.809,0.026h-10.421c-10.811,0-19.605,8.891-19.605,19.819s8.795,19.819,19.605,19.819h10.421
		c17.978,0,21.092,14.892,21.092,33.196v254.387c0,18.304-14.626,33.196-32.604,33.196H198.852h-2.309H88.703
		c-17.978,0-32.604-14.892-32.604-33.196V72.861c0-18.304,3.114-33.196,21.092-33.196h10.421c10.81,0,19.605-8.891,19.605-19.819
		S98.422,0.026,87.611,0.026H77.191c-39.569,0-60.247,32.649-60.247,72.78v254.386c0,40.131,32.191,72.78,71.759,72.78h107.84h2.309
		h112.445c39.568,0,71.759-32.649,71.759-72.78V72.807C383.056,32.676,362.378,0.026,322.809,0.026z"/>
	<path d="M167.718,39.638h64.51c10.839,0,19.658-8.891,19.658-19.819S243.091,0,232.28,0h-64.562
		c-10.81,0-19.604,8.901-19.604,19.816c-0.041,5.251,1.974,10.205,5.674,13.951C157.486,37.511,162.425,39.597,167.718,39.638z"/>
</g>
</svg>
