<?xml version="1.0" encoding="utf-8"?>
<!-- Generator: Adobe Illustrator 17.0.0, SVG Export Plug-In . SVG Version: 6.00 Build 0)  -->
<!DOCTYPE svg PUBLIC "-//W3C//DTD SVG 1.1//EN" "http://www.w3.org/Graphics/SVG/1.1/DTD/svg11.dtd">
<svg version="1.1" id="图层_1" xmlns="http://www.w3.org/2000/svg" xmlns:xlink="http://www.w3.org/1999/xlink" x="0px" y="0px"
	 width="400px" height="400px" viewBox="0 0 400 400" enable-background="new 0 0 400 400" xml:space="preserve">
<path d="M278.056,0.018c-67.347,0-121.941,54.596-121.941,121.943c0,13.97,2.381,27.378,6.705,39.878L15.825,307.747
	c-21.1,21.101-21.1,55.31,0,76.41s55.312,21.1,76.41,0l10.158-10.082h29.444c6.842,0,12.389-5.546,12.389-12.39v-28.763h28.765
	c6.842,0,12.389-5.546,12.389-12.389v-28.831l54.373-53.972c12.048,3.986,24.917,6.173,38.302,6.173
	c67.347,0,121.944-54.595,121.944-121.941S345.404,0.018,278.056,0.018L278.056,0.018z M307.324,131.716
	c-20.878,0-37.803-16.925-37.803-37.803c0-20.878,16.925-37.802,37.803-37.802c20.878,0,37.801,16.924,37.801,37.802
	C345.125,114.791,328.202,131.716,307.324,131.716L307.324,131.716z M307.324,131.716"/>
</svg>
