<svg version="1" xmlns="http://www.w3.org/2000/svg" width="400" height="400" viewBox="-100 -100 400 400"><path d="M175 208H27c-6 0-11 4-11 11 0 6 5 11 11 11h148c6 0 10-5 10-11 0-7-5-11-10-11zM175 147H27c-6 0-11 4-11 11 0 6 5 11 11 11h148c6 0 10-5 10-11 0-7-5-11-10-11z"/><path d="M274-26h-48v-37c0-18-8-36-26-36H11c-18 0-37 19-37 36v38h-37c-18 0-37 18-37 35v116c0 18 19 27 37 27h38v118c0 19 19 28 37 28h188c18 0 26-9 26-28V153h48c18 0 26-11 26-27V10c0-18-9-36-26-36zm-69 293c0 6-4 11-10 11H5c-6 0-10-6-10-11V111c0-6 4-11 10-11h190c6 0 10 5 10 11v156zm0-293H-5v-37c0-7 9-15 15-15h190c5 0 5 8 5 15v37zm34 64c-8 0-15-8-15-16s6-15 15-15c8 0 16 7 16 15s-8 16-16 16z"/></svg>