<?xml version="1.0" encoding="utf-8"?>
<!-- Generator: Adobe Illustrator 17.0.0, SVG Export Plug-In . SVG Version: 6.00 Build 0)  -->
<!DOCTYPE svg PUBLIC "-//W3C//DTD SVG 1.1//EN" "http://www.w3.org/Graphics/SVG/1.1/DTD/svg11.dtd">
<svg version="1.1" id="图层_1" xmlns="http://www.w3.org/2000/svg" xmlns:xlink="http://www.w3.org/1999/xlink" x="0px" y="0px"
	 width="400px" height="400px" viewBox="0 0 400 400" enable-background="new 0 0 400 400" xml:space="preserve">
<path d="M363.112,111.123H252.576V42.159C252.576,18.913,233.664,0,210.417,0H189.63c-23.244,0-42.154,18.913-42.154,42.159v68.778
	H36.846c-11.784,0-21.372,9.586-21.372,21.37v69.318c0,11.589,9.272,21.054,20.787,21.365v99.776
	c0,28.998-6.583,53.646-6.651,53.894l-0.248,1.674l-0.015,0.298c0,11.782,9.588,21.367,21.372,21.367h298.565
	c11.782,0,21.367-9.585,21.367-21.367l-0.184-1.618l-0.06-0.288c-0.067-0.256-6.664-25.909-6.664-55.303v-98.432
	c11.514-0.314,20.783-9.777,20.783-21.365v-69.365C384.452,120.605,374.846,111.123,363.112,111.123z M274.54,274.066h-3.483
	c-6.998,0-12.692,5.696-12.692,12.697v84.372h-40.497v-84.372c0-7.001-5.693-12.697-12.692-12.697h-3.483
	c-7,0-12.694,5.696-12.694,12.697v84.372h-43.926v-84.372c0-7.001-5.696-12.697-12.696-12.697h-3.48
	c-7,0-12.694,5.696-12.694,12.697v84.372H60.017c1.666-7.961,4.929-26.375,4.929-48.368v-99.768h269.509v99.768
	c0,15.426,1.619,31.262,4.946,48.368h-52.168v-84.372C287.232,279.761,281.538,274.066,274.54,274.066z M355.567,139.991
	l0.045,54.32H44.344v-54.32H176.25V45.823c0-9.403,7.366-16.769,16.768-16.769h13.874c9.402,0,16.767,7.366,16.767,16.769v94.169
	H355.567z"/>
</svg>
