<?xml version="1.0" encoding="utf-8"?>
<!-- Generator: Adobe Illustrator 17.0.0, SVG Export Plug-In . SVG Version: 6.00 Build 0)  -->
<!DOCTYPE svg PUBLIC "-//W3C//DTD SVG 1.1//EN" "http://www.w3.org/Graphics/SVG/1.1/DTD/svg11.dtd">
<svg version="1.1" id="图层_1" xmlns="http://www.w3.org/2000/svg" xmlns:xlink="http://www.w3.org/1999/xlink" x="0px" y="0px"
	 width="400px" height="400px" viewBox="0 0 400 400" enable-background="new 0 0 400 400" xml:space="preserve">
<path d="M200,0C89.536,0,0,89.537,0,200c0,110.464,89.536,200,200,200s200-89.536,200-200C400,89.537,310.464,0,200,0z
	 M199.999,360.447C111.396,360.446,39.556,288.607,39.556,200c0-88.604,71.84-160.443,160.444-160.443
	c88.606,0,160.443,71.84,160.443,160.443C360.443,288.607,288.606,360.447,199.999,360.447z"/>
<path d="M275.329,121.124L169.747,229.243l-45.032-46.107c-8.901-9.124-23.355-9.124-32.283,0c-8.957,9.124-8.957,23.956,0,33.077
	l61.161,62.668c4.465,4.577,10.323,6.838,16.155,6.838c5.832,0,11.693-2.317,16.155-6.838L307.61,154.202
	c8.901-9.124,8.901-23.924,0-33.077C298.709,112,284.228,112,275.329,121.124L275.329,121.124z"/>
</svg>
