<?xml version="1.0" encoding="utf-8"?>
<!-- Generator: Adobe Illustrator 17.0.0, SVG Export Plug-In . SVG Version: 6.00 Build 0)  -->
<!DOCTYPE svg PUBLIC "-//W3C//DTD SVG 1.1//EN" "http://www.w3.org/Graphics/SVG/1.1/DTD/svg11.dtd">
<svg version="1.1" id="图层_1" xmlns="http://www.w3.org/2000/svg" xmlns:xlink="http://www.w3.org/1999/xlink" x="0px" y="0px"
	 width="400px" height="400px" viewBox="106 196 400 400" enable-background="new 106 196 400 400" xml:space="preserve">
<g>
	<path d="M427.353,408.255c-12.587,0-22.792,10.203-22.792,22.79v96.09c0,12.838-10.66,23.284-23.764,23.284H176.768
		c-13.102,0-23.764-10.446-23.764-23.284V264.867c0-12.839,10.662-23.285,23.764-23.285h178.138
		c12.586,0,22.789-10.203,22.789-22.79S367.492,196,354.906,196H176.768c-38.236,0-69.346,30.894-69.346,68.867v262.267
		c0,37.973,31.109,68.865,69.346,68.865h204.029c38.239,0,69.346-30.894,69.346-68.865v-96.09
		C450.143,418.458,439.939,408.255,427.353,408.255z"/>
	<path d="M496.958,223.096c-10.462-10.894-27.775-11.247-38.672-0.787L238.21,433.602c-10.897,10.461-11.249,27.774-0.788,38.671
		c5.37,5.592,12.546,8.407,19.732,8.407c6.812,0,13.635-2.53,18.938-7.619l220.076-211.292
		C507.065,251.307,507.417,233.993,496.958,223.096z"/>
</g>
</svg>
