<?xml version="1.0" encoding="utf-8"?>
<!-- Generator: Adobe Illustrator 17.0.0, SVG Export Plug-In . SVG Version: 6.00 Build 0)  -->
<!DOCTYPE svg PUBLIC "-//W3C//DTD SVG 1.1//EN" "http://www.w3.org/Graphics/SVG/1.1/DTD/svg11.dtd">
<svg version="1.1" id="图层_1" xmlns="http://www.w3.org/2000/svg" xmlns:xlink="http://www.w3.org/1999/xlink" x="0px" y="0px"
	 width="400px" height="400px" viewBox="-100 -100 400 400" enable-background="new -100 -100 400 400" xml:space="preserve">
<path d="M285.753,85.777c-7.854,0-14.221,6.368-14.221,14.223c0.132,45.531-17.964,89.221-50.251,121.322
	c-32.387,32.391-75.477,50.257-121.281,50.257s-88.894-17.867-121.306-50.257C-53.584,189.215-71.678,145.529-71.558,100
	c0-45.785,17.839-88.906,50.251-121.296S54.196-71.554,100-71.554c60.91-0.05,117.265,32.25,148.015,84.835
	c3.839,6.853,12.506,9.295,19.358,5.455c6.852-3.84,9.294-12.508,5.455-19.36c-0.093-0.167-0.19-0.331-0.29-0.494
	C236.663-62.384,170.989-100.022,100-100C46.936-100.074-3.967-78.983-41.432-41.4C-78.954-3.914-100.025,46.959-100,100
	c-0.088,53.073,21.003,103.988,58.593,141.45c37.462,37.581,88.371,58.657,141.432,58.55c53.061,0.107,103.97-20.969,141.432-58.55
	C279.034,203.983,300.106,153.067,300,100C299.972,92.146,293.606,85.791,285.753,85.777z"/>
<path d="M134.686,185.614h23.367c16.583,0.503,26.156-5.302,28.668-17.364c2.513-6.533,4.02-15.077,4.523-25.631
	c-4.523-1.533-11.533-4.272-21.105-8.292c0,1.03-0.251,3.041-0.729,6.031c-0.528,7.564-1.03,12.564-1.533,15.077
	c-1.03,8.041-5.779,11.836-14.322,11.333h-9.824c-7.99,0.503-11.784-3.543-11.281-12.062v-44.478l24.874-0.779l11.281,12.062
	l17.362-15.077c-17.792-16.177-35.886-32.019-54.271-47.518L116.57,70.976c1.533,1.533,4.02,3.769,7.563,6.785
	c5.553,5.553,9.523,9.574,12.06,12.062l-76.909,2.262c9.523-7.539,23.593-20.857,42.211-39.955h87.437V31.775h-71.608l-2.261-6.785
	c-2.01-7.539-3.543-12.564-4.523-15.077l-26.407,2.262l2.261,6.785c2.01,5.553,3.241,9.8,3.769,12.816H11.771V52.13h59.548
	c-7.563,8.544-17.613,18.595-30.151,30.129c-5.952,4.514-12.253,8.547-18.844,12.062l10.553,21.837
	c6.03-2.01,13.819-3.242,23.392-3.719h5.251c3.04,28.622-14.573,47.694-52.764,57.268l4.523,6.785
	c4.548,6.031,7.814,10.554,9.824,13.595c43.719-14.097,64.347-40.206,61.809-78.427c8.015-0.503,16.08-0.729,24.121-0.729v50.509
	C108.58,178,117.073,186.041,134.686,185.614L134.686,185.614z"/>
</svg>
