<?xml version="1.0" encoding="utf-8"?>
<!-- Generator: Adobe Illustrator 17.0.0, SVG Export Plug-In . SVG Version: 6.00 Build 0)  -->
<!DOCTYPE svg PUBLIC "-//W3C//DTD SVG 1.1//EN" "http://www.w3.org/Graphics/SVG/1.1/DTD/svg11.dtd">
<svg version="1.1" id="图层_1" xmlns="http://www.w3.org/2000/svg" xmlns:xlink="http://www.w3.org/1999/xlink" x="0px" y="0px"
	 width="400px" height="400px" viewBox="-100 -137.485 400 400" enable-background="new -100 -137.485 400 400"
	 xml:space="preserve">
<g>
	<path d="M290.606,67.919l-19.381-17.91c-5.29-4.886-11.524-7.469-18.03-7.469c-7.721,0-15.375,3.683-21.55,10.368L113.392,180.76
		l-8.154,58.362l-0.029,0.374c-0.157,2.907,0.961,5.675,3.028,7.563c1.752,1.678,4.073,2.602,6.534,2.602
		c0.442,0,0.862-0.035,1.256-0.104l58.139-12.547l117.397-127.046c5.53-5.607,8.602-13.323,8.431-21.177
		C299.821,80.888,296.4,73.283,290.606,67.919z M244.269,121.012l-83.9,90.722l-21.583,2.369l0.832-21.546l83.907-90.73
		L244.269,121.012z M272.218,90.815l-9.407,10.169l-20.744-19.187l9.464-10.226c0.747-0.632,2.041-0.671,2.85-0.045l17.785,16.455
		C272.844,88.792,272.87,89.97,272.218,90.815z"/>
	<path d="M82.36,221.943c-67.67-0.023-144.154-0.025-154.41-0.025v-293.14c0.057-0.008,0.128-0.014,0.212-0.014
		c2.283,0.025,8.048,0.025,23.218,0.025v4.786c0,11.519,9.372,20.891,20.891,20.891h165.881c11.52,0,20.891-9.372,20.891-20.891
		v-4.786h23.404l0.081,130.759h24.423c1.929,0,3.498-1.569,3.498-3.497V-72.385c0-14.749-12.034-26.749-26.826-26.749h-24.529
		v-4.786c0-11.519-9.371-20.891-20.89-20.891H-27.73c-11.519,0-20.891,9.372-20.891,20.891v4.786h-24.554
		c-14.792,0-26.826,12-26.826,26.749v295.478c0,14.749,12.034,26.748,26.826,26.748H82.359c1.929,0,3.497-1.569,3.497-3.497v-20.902
		C85.856,223.512,84.287,221.943,82.36,221.943z M-20.722-73.431v-23.456h151.867v23.456H-20.722z"/>
	<path d="M146.242,23.974c0-7.706-6.269-13.975-13.975-13.975H-21.846c-7.706,0-13.975,6.269-13.975,13.987
		c0.033,7.699,6.302,13.962,13.975,13.962h154.113C139.973,37.949,146.242,31.68,146.242,23.974z"/>
	<path d="M121.378,74.204H-21.846c-7.706,0-13.975,6.269-13.975,13.975s6.269,13.975,13.975,13.975h143.223
		c7.706,0,13.974-6.269,13.974-13.975S129.083,74.204,121.378,74.204z"/>
	<path d="M80.888,138.435H-21.846c-7.706,0-13.975,6.269-13.975,13.975s6.269,13.975,13.975,13.975H80.888
		c7.706,0,13.975-6.269,13.975-13.975S88.593,138.435,80.888,138.435z"/>
</g>
</svg>
