<?xml version="1.0" encoding="utf-8"?>
<!-- Generator: Adobe Illustrator 17.1.0, SVG Export Plug-In . SVG Version: 6.00 Build 0)  -->
<!DOCTYPE svg PUBLIC "-//W3C//DTD SVG 1.1//EN" "http://www.w3.org/Graphics/SVG/1.1/DTD/svg11.dtd">
<svg version="1.1" id="图层_1" xmlns="http://www.w3.org/2000/svg" xmlns:xlink="http://www.w3.org/1999/xlink" x="0px" y="0px"
	 viewBox="0 0 400 400" enable-background="new 0 0 400 400" xml:space="preserve">
<path fill="#333333" d="M381.181,143.786h-81.207c-10.363,0-18.768-8.407-18.768-18.773c0-10.366,8.405-18.772,18.768-18.772h32.586
	c-29.389-41.568-77.752-68.747-132.559-68.747c-89.714,0-162.466,72.768-162.466,162.505s72.752,162.507,162.466,162.507
	s162.464-72.77,162.464-162.507c0-10.366,8.404-18.772,18.768-18.772c10.363,0,18.767,8.406,18.767,18.772
	C400,310.47,310.442,400,200.052,400C89.663,400,0,310.47,0,200.052C0,89.581,89.558,0,200.001,0
	c67.026,0,126.219,33.057,162.464,83.703V50.026c0-10.366,8.404-18.773,18.768-18.773c10.363,0,18.767,8.407,18.767,18.773v74.987
	C399.949,135.379,391.545,143.786,381.181,143.786L381.181,143.786z M381.181,143.786"/>
</svg>
