<?xml version="1.0" encoding="utf-8"?>
<!-- Generator: Adobe Illustrator 17.0.0, SVG Export Plug-In . SVG Version: 6.00 Build 0)  -->
<!DOCTYPE svg PUBLIC "-//W3C//DTD SVG 1.1//EN" "http://www.w3.org/Graphics/SVG/1.1/DTD/svg11.dtd">
<svg version="1.1" id="图层_1" xmlns="http://www.w3.org/2000/svg" xmlns:xlink="http://www.w3.org/1999/xlink" x="0px" y="0px"
	 width="400px" height="400px" viewBox="-100 -100 400 400" enable-background="new -100 -100 400 400" xml:space="preserve">
<g>
	<rect x="32.681" y="-98.982" width="135.554" height="34.822"/>
	<path d="M254.42-98.966c-7.132-0.686-13.759-1.034-19.698-1.034c-10.309,0-15.082,1.058-15.28,1.103l-2.677,0.609v34.127
		c0,0-30.324,30.002-118.266,30.002S-7.607-64.16-7.607-64.16v-35.738h-46.483c-24.84,0-36.409,12.738-36.409,40.085v322.018
		c0,26.138,9.817,37.795,31.83,37.795h312.761c23.139,0,36.409-13.108,36.409-35.962V-64.394
		C290.5-86.485,280.047-96.501,254.42-98.966z M64.949,236.082h-95.656v-38.22h95.656V236.082z M64.949,154.422h-95.656v-38.221
		h95.656V154.422z M64.949,69.736h-95.656v-38.22h95.656V69.736z M158.958,229.115l-49.932-49.948l26.065-26.074l24.302,26.202
		l52.136-49.121l24.837,28.244L158.958,229.115z M158.958,120.234l-49.645-49.661l25.468-29.721l24.731,26.664l52.135-46.091
		l24.72,28.11L158.958,120.234z"/>
</g>
</svg>
