<?xml version="1.0" encoding="utf-8"?>
<!-- Generator: Adobe Illustrator 17.0.0, SVG Export Plug-In . SVG Version: 6.00 Build 0)  -->
<!DOCTYPE svg PUBLIC "-//W3C//DTD SVG 1.1//EN" "http://www.w3.org/Graphics/SVG/1.1/DTD/svg11.dtd">
<svg version="1.1" id="图层_1" xmlns="http://www.w3.org/2000/svg" xmlns:xlink="http://www.w3.org/1999/xlink" x="0px" y="0px"
	 width="400px" height="400px" viewBox="0 0 400 400" enable-background="new 0 0 400 400" xml:space="preserve">
<g>
	<rect x="85.479" y="180.579" width="114.982" height="33.447"/>
	<rect x="85.479" y="105.915" width="224.918" height="33.447"/>
	<path d="M287.961,311.527c0.743,0.149,1.506,0.225,2.267,0.225c5.534,0,10.589-3.922,11.814-9.142l10.144-34.578l0.03-0.335
		c0.604-6.64-3.591-12.879-9.55-14.205l-0.326-0.072l-36.706-0.918c-0.633-0.109-1.249-0.165-1.833-0.165
		c-6.696,0-8.193,6.73-8.77,9.336c-1.703,8.517,6.382,10.313,9.054,10.906l0.666,0.145l-50.023,23.695l-38.889-26.217
		c-2.564-2.431-6.047-3.819-9.613-3.819c-2.98,0-5.902,0.972-8.254,2.743l-58.939,36.095l-0.261,0.159l-0.228,0.203
		c-5.662,5.033-6.442,13.544-1.804,19.34c2.491,3.203,6.613,5.192,10.759,5.192c3.117,0,6.024-1.119,8.24-3.162l50.454-29.396
		l37.996,25.768c2.587,1.919,5.548,2.876,9.045,2.924c3.496,0.513,7.59-0.11,13.275-2.007l0.298-0.099l53.053-29.2l-1.011,5.665
		C277.146,309.124,285.231,310.921,287.961,311.527z"/>
	<path d="M354.467,1.034C347.333,0.348,340.704,0,334.763,0c-10.312,0-15.087,1.058-15.284,1.103l-2.678,0.609v34.127h38.936V364.72
		H44.262V35.84h48.097V0.102H45.861c-24.847,0-36.42,12.738-36.42,40.085v322.018c0,26.138,9.82,37.795,31.84,37.795h312.858
		c23.146,0,36.42-13.108,36.42-35.962V35.606C390.558,13.515,380.101,3.499,354.467,1.034z"/>
	<rect x="132.659" y="1.018" width="135.595" height="34.822"/>
</g>
</svg>
