<?xml version="1.0" encoding="utf-8"?>
<!-- Generator: Adobe Illustrator 17.0.0, SVG Export Plug-In . SVG Version: 6.00 Build 0)  -->
<!DOCTYPE svg PUBLIC "-//W3C//DTD SVG 1.1//EN" "http://www.w3.org/Graphics/SVG/1.1/DTD/svg11.dtd">
<svg version="1.1" id="图层_1" xmlns="http://www.w3.org/2000/svg" xmlns:xlink="http://www.w3.org/1999/xlink" x="0px" y="0px"
	 width="400px" height="400px" viewBox="0 0 400 400" enable-background="new 0 0 400 400" xml:space="preserve">
<path stroke="#000000" stroke-miterlimit="10" d="M150.901,343.212c-16.122,0-29.239,13.117-29.239,29.238
	c0,16.117,13.117,29.229,29.239,29.229c16.119,0,29.234-13.112,29.234-29.229C180.135,356.328,167.021,343.212,150.901,343.212z"/>
<path stroke="#000000" stroke-miterlimit="10" d="M299.343,343.212c-16.123,0-29.239,13.117-29.239,29.238
	c0,16.117,13.117,29.229,29.239,29.229c16.117,0,29.229-13.112,29.229-29.229C328.571,356.328,315.46,343.212,299.343,343.212z"/>
<path d="M396.396,63.094c-3.86-5.515-10.129-8.678-17.196-8.678H68.498l-10.99-38.024C55.234,7.636,47.3,1.162,37.833,1.162
	c-11.239,0-20.35,9.111-20.35,20.35c0,2.698,0.537,5.268,1.49,7.624l-0.024,0.008l2.278,6.373l90.807,278.774l1.01,3.082h220.133
	c9.283,0,15.752-9.23,15.752-17.515c0-8.279-6.469-17.504-15.752-17.504H141.932l-10.613-32.217h182.457
	c18.313,0,34.708-11.933,40.8-29.701l45.269-139.092C401.103,74.417,399.91,68.106,396.396,63.094z"/>
</svg>
