<?xml version="1.0" encoding="utf-8"?>
<!-- Generator: Adobe Illustrator 17.0.0, SVG Export Plug-In . SVG Version: 6.00 Build 0)  -->
<!DOCTYPE svg PUBLIC "-//W3C//DTD SVG 1.1//EN" "http://www.w3.org/Graphics/SVG/1.1/DTD/svg11.dtd">
<svg version="1.1" id="图层_1" xmlns="http://www.w3.org/2000/svg" xmlns:xlink="http://www.w3.org/1999/xlink" x="0px" y="0px"
	 width="400px" height="400px" viewBox="312 312 400 400" enable-background="new 312 312 400 400" xml:space="preserve">
<path d="M702.88,642.464l-74.13-50.617c13.249-24.573,20.222-52.05,20.222-79.894c0-92.905-75.582-168.489-168.485-168.489
	C387.583,343.464,312,419.047,312,511.953c0,92.902,75.583,168.484,168.487,168.484c47.359,0,92.253-19.863,124.185-54.717
	l74.778,51.113c3.446,2.423,7.504,3.703,11.738,3.703c6.919,0,13.339-3.388,17.198-9.1
	C714.842,661.754,712.433,649.034,702.88,642.464z M607.427,511.844c-0.09,70.002-57.035,126.953-126.94,126.953
	c-69.997,0-126.943-56.947-126.943-126.943c0-69.995,56.947-126.94,126.943-126.94C550.482,384.913,607.427,441.858,607.427,511.844
	z"/>
</svg>
