<svg version="1" xmlns="http://www.w3.org/2000/svg" width="400" height="400" viewBox="0 0 400 400"><path d="M313 138c5 0 10-2 13-5l63-69c7-8 11-16 11-18 0-1-5-4-11-5v-1L288 2l-4-1c-8 0-17 6-19 13-3 9 2 19 11 22l24 8-19 6c-18 6-34 13-48 22-32 20-61 48-84 84-40 59-51 119-51 121a19 19 0 0 0 15 21l3 1c8 0 18-6 19-14 1-3 11-56 46-109a238 238 0 0 1 131-99l23-7-36 38a17 17 0 0 0 1 24c3 3 8 6 13 6z"/><path d="M0 339c0 33 27 60 60 60h275c33 0 60-27 60-60V216c0-10-9-18-20-18-10 0-19 8-19 18l-1 123c0 19-14 21-20 21H60c-13 0-21-8-21-21V84c0-13 10-24 23-24h87c10 0 18-9 18-19s-7-21-18-21H60C27 20 0 47 0 80v259z"/></svg>