<?xml version="1.0" encoding="utf-8"?>
<!-- Generator: Adobe Illustrator 17.0.0, SVG Export Plug-In . SVG Version: 6.00 Build 0)  -->
<!DOCTYPE svg PUBLIC "-//W3C//DTD SVG 1.1//EN" "http://www.w3.org/Graphics/SVG/1.1/DTD/svg11.dtd">
<svg version="1.1" id="home_x5F_复制_x5F_2" xmlns="http://www.w3.org/2000/svg" xmlns:xlink="http://www.w3.org/1999/xlink"
	 x="0px" y="0px" width="400px" height="400px" viewBox="0 0 400 400" enable-background="new 0 0 400 400" xml:space="preserve">
<g>
	<path d="M200,0C89.543,0,0,89.543,0,200c0,110.457,89.543,200,200,200s200-89.543,200-200C400,89.543,310.457,0,200,0z
		 M358.42,208.258c0,0-12.176,16.025-13.728,18.116c-4.626,6.233-8.205,11.93-10.632,17.19c-0.828,1.795-1.628,3.635-2.404,5.521
		c-4.125,10.042-7.333,20.87-9.715,31.709c-0.834,3.798-1.505,7.32-2.026,10.47c-0.144,0.877-0.261,2.619-0.354,4.286
		c0.403,0.938,0.631,1.969,0.631,3.054v30.934c0,4.271-4.2,6.86-8.444,6.86s-7.023-2.589-7.023-6.86v-23.877H99.751v23.877
		l0.642-0.824c0,4.244-3.439,7.684-7.683,7.684c-4.244,0-7.685-3.44-7.685-7.684v-30.737c0-0.07,0.015-0.132,0.016-0.201
		c-0.229-1.874-0.632-5.135-0.86-6.512c-0.52-3.15-1.192-6.673-2.026-10.47c-2.382-10.839-7.376-21.668-11.503-31.709
		c-0.773-1.885-9.301-16.478-13.928-22.71c-2.032-2.738-16.673-19.201-17.605-21.995c-7.778-23.334,4.699-45.339,26.656-51.231
		l52.128,46.743c3.138,2.898,8.031,2.702,10.929-0.437c2.897-3.138,2.701-8.031-0.438-10.927l-49.877-44.143
		c-0.356-0.329-0.77-0.577-1.177-0.832v-41.51c0-21.229,17.211-38.44,38.436-38.44h161.345c21.228,0,38.436,17.21,38.436,38.44
		l0.228,50.173c31.674-4.793,52.852,20.173,46.191,48.088C361.189,203.519,358.42,208.258,358.42,208.258z"/>
	<path d="M295.809,152.847l-55.679,70.527h-77.802c-4.271,0-7.733,3.462-7.733,7.734c0,4.271,3.462,7.734,7.733,7.734h81.549
		c2.366,0,4.603-1.084,6.069-2.941c0,0,56.74-71.735,58.003-73.471C312.906,155.682,303.937,145.306,295.809,152.847z"/>
</g>
</svg>
