<?xml version="1.0" encoding="utf-8"?>
<!-- Generator: Adobe Illustrator 17.0.0, SVG Export Plug-In . SVG Version: 6.00 Build 0)  -->
<!DOCTYPE svg PUBLIC "-//W3C//DTD SVG 1.1//EN" "http://www.w3.org/Graphics/SVG/1.1/DTD/svg11.dtd">
<svg version="1.1" id="图层_1" xmlns="http://www.w3.org/2000/svg" xmlns:xlink="http://www.w3.org/1999/xlink" x="0px" y="0px"
	 width="400px" height="400px" viewBox="-100 -100 400 400" enable-background="new -100 -100 400 400" xml:space="preserve">
<g>
	<path d="M94.438-99.239c-5.117,0-9.801,3.987-9.801,3.987L-100,17.582v270.646c0,0,1.687,11.012,14.077,11.012
		s15.086-11.012,15.086-11.012V33.901L94.528-67.176l176.31,101.523v252.88c0,0,1.869,12.013,14.51,12.013
		c12.64,0,14.652-12.013,14.652-12.013V17.136L104.509-95.442C104.509-95.442,99.555-99.239,94.438-99.239z"/>
	<path d="M172.888,32.118H27.112v121.346h-60.873v145.775h267.522V153.464h-60.873V32.118z M50.741,56.147h25.23v28.434h47.657
		V56.147h25.23v97.317H50.741V56.147z M87.986,275.21h-98.118v-98.118h25.23v28.434h47.657v-27.633h25.23V275.21z M184.902,205.526
		v-28.434h25.23l0,98.519h-98.118v-97.718h25.23v27.633H184.902z"/>
</g>
</svg>
