<?xml version="1.0" encoding="utf-8"?>
<!-- Generator: Adobe Illustrator 17.0.0, SVG Export Plug-In . SVG Version: 6.00 Build 0)  -->
<!DOCTYPE svg PUBLIC "-//W3C//DTD SVG 1.1//EN" "http://www.w3.org/Graphics/SVG/1.1/DTD/svg11.dtd">
<svg version="1.1" id="图层_1" xmlns="http://www.w3.org/2000/svg" xmlns:xlink="http://www.w3.org/1999/xlink" x="0px" y="0px"
	 width="400px" height="400px" viewBox="0 0 400 400" enable-background="new 0 0 400 400" xml:space="preserve">
<path fill="#040000" d="M393.944,72.498c-3.752-3.737-9.476-5.884-15.723-5.884c-6.256,0-11.981,2.142-15.694,5.874L154.94,278.945
	L37.587,161.591c-3.742-3.737-9.472-5.884-15.718-5.884s-11.976,2.147-15.718,5.879C2.243,165.498,0,171.227,0,177.305
	c0,6.082,2.234,11.802,6.121,15.689l133.086,134.251c3.911,3.897,9.641,6.14,15.718,6.14c5.294,0,10.497-1.683,15.776-5.251
	l223.243-224.2C402.019,95.861,402.019,80.587,393.944,72.498z"/>
</svg>
