<?xml version="1.0" encoding="utf-8"?>
<!-- Generator: Adobe Illustrator 17.0.0, SVG Export Plug-In . SVG Version: 6.00 Build 0)  -->
<!DOCTYPE svg PUBLIC "-//W3C//DTD SVG 1.1//EN" "http://www.w3.org/Graphics/SVG/1.1/DTD/svg11.dtd">
<svg version="1.1" id="图层_1" xmlns="http://www.w3.org/2000/svg" xmlns:xlink="http://www.w3.org/1999/xlink" x="0px" y="0px"
	 width="400px" height="400px" viewBox="-100 -100 400 400" enable-background="new -100 -100 400 400" xml:space="preserve">
<g>
	<path d="M284.276,22.145c-10.074-23.818-24.492-45.205-42.854-63.566c-18.361-18.362-39.749-32.78-63.567-42.854
		C153.185-94.71,126.991-100,100-100c-26.992,0-53.186,5.29-77.855,15.725C-1.672-74.202-23.059-59.784-41.421-41.421
		C-59.784-23.06-74.202-1.672-84.275,22.145C-94.71,46.814-100,73.008-100,100c0,26.991,5.29,53.185,15.725,77.855
		c10.073,23.817,24.491,45.204,42.854,63.567c18.361,18.361,39.748,32.779,63.566,42.853C46.813,294.709,73.008,300,100,300
		c50.3,0,98.375-18.742,135.37-52.774c3.807-3.502,6.023-8.277,6.238-13.445c0.216-5.169-1.595-10.112-5.097-13.919
		c-3.657-3.975-8.853-6.255-14.257-6.255c-4.867,0-9.522,1.816-13.106,5.113c-29.827,27.438-68.591,42.549-109.149,42.549
		c-43.077,0-83.575-16.775-114.035-47.235C-44.495,183.574-61.27,143.077-61.27,100s16.775-83.575,47.235-114.035
		C16.425-44.494,56.923-61.269,100-61.269c43.076,0,83.574,16.775,114.035,47.235c30.46,30.46,47.235,70.958,47.235,114.035
		c0,19.6-3.472,38.744-10.319,56.899c-3.768,9.991,1.294,21.185,11.286,24.953c2.201,0.83,4.499,1.251,6.831,1.251
		c0.001,0,0,0,0.001,0c8.01,0,15.293-5.038,18.12-12.537C295.69,148.029,300,124.287,300,100
		C300.001,73.01,294.711,46.816,284.276,22.145z"/>
	<path d="M58.211,127.722l56.186,56.186c3.657,3.658,8.52,5.673,13.693,5.673c5.172,0,10.035-2.014,13.693-5.673
		c7.55-7.55,7.55-19.836,0-27.387l-50.453-50.452V29.785c0-10.678-8.688-19.366-19.366-19.366S52.6,19.107,52.6,29.785l0.003,82.727
		C52.161,118.173,54.205,123.716,58.211,127.722z"/>
</g>
</svg>
