<?xml version="1.0" encoding="utf-8"?>
<!-- Generator: Adobe Illustrator 17.0.0, SVG Export Plug-In . SVG Version: 6.00 Build 0)  -->
<!DOCTYPE svg PUBLIC "-//W3C//DTD SVG 1.1//EN" "http://www.w3.org/Graphics/SVG/1.1/DTD/svg11.dtd">
<svg version="1.1" id="图层_1" xmlns="http://www.w3.org/2000/svg" xmlns:xlink="http://www.w3.org/1999/xlink" x="0px" y="0px"
	 width="525px" height="114px" viewBox="0 0 525 114" enable-background="new 0 0 525 114" xml:space="preserve">
<g>
	<path d="M30.632,18.807c0-6.904-5.596-12.5-12.5-12.5s-12.5,5.596-12.5,12.5s5.596,12.5,12.5,12.5S30.632,25.71,30.632,18.807z
		 M19.352,26.807h-1.64v-12.28c-0.88,0.907-2,1.56-3.36,1.96v-1.64c0.626-0.173,1.293-0.467,2-0.88c0.653-0.4,1.227-0.88,1.72-1.44
		h1.28V26.807z"/>
	<path d="M28.378,45.037V57.12h1.208c2.054,0,3.625,1.571,3.625,3.625s-1.571,3.625-3.625,3.625h-1.208v12.083
		c0,2.054,1.571,3.625,3.625,3.625h50.75c2.054,0,3.625-1.571,3.625-3.625V65.578H85.17c-2.054,0-3.625-1.571-3.625-3.625
		s1.571-3.625,3.625-3.625h1.208V45.037c0-2.054-1.571-3.625-3.625-3.625h-6.974L63.54,23.77c-1.088-1.692-3.383-2.054-5.075-0.967
		l-11.107,7.731l-2.305-1.327c-0.846-0.483-1.813-0.604-2.779-0.362c-0.967,0.242-1.692,0.846-2.175,1.692l-6.335,10.875h-1.761
		C29.949,41.412,28.378,42.983,28.378,45.037z M59.916,24.737c0.604-0.362,1.329-0.242,1.692,0.363l11.276,16.312H66.25
		l-16.615-9.566L59.916,24.737z M42.153,31.745c0.121-0.242,0.362-0.483,0.725-0.604c0.362-0.121,0.604,0,0.967,0.121l17.579,10.15
		H36.54L42.153,31.745z M30.795,45.037c0-0.725,0.483-1.208,1.208-1.208l50.75-0.001c0.725,0,1.208,0.483,1.208,1.208v10.997
		c-2.779,0.604-4.833,3.021-4.833,5.921c0,2.9,2.054,5.317,4.833,5.921v8.579c0,0.725-0.483,1.208-1.208,1.208h-50.75
		c-0.725,0-1.208-0.483-1.208-1.208v-9.788c2.779-0.604,4.833-3.021,4.833-5.921s-2.054-5.317-4.833-5.921V45.037z"/>
	<path d="M47.228,68.962c0.121,0.121,0.242,0.363,0.483,0.725c0.362,0.604,0.725,1.087,0.846,1.329
		c5.075-1.571,7.371-4.592,7.129-9.063l2.9-0.121v5.921c-0.121,1.813,0.846,2.658,2.779,2.658h2.538
		c1.933,0.121,3.021-0.604,3.263-1.933c0.242-0.725,0.483-1.571,0.483-2.658c-0.725-0.242-1.45-0.604-2.175-0.846
		c-0.121,0.604-0.242,1.45-0.362,2.417c-0.121,0.846-0.725,1.208-1.692,1.208h-1.208c-0.967,0.121-1.45-0.362-1.45-1.329v-5.317
		l3.021-0.121l1.329,1.329l1.813-1.571c-2.054-1.813-4.108-3.625-6.042-5.317l-1.571,1.208c0.242,0.242,0.725,0.604,1.208,1.088
		c0.604,0.483,0.967,0.967,1.208,1.208l-9.304,0.242c1.329-1.208,3.021-2.779,4.954-4.713h9.908v-2.175h-8.217
		c0-0.242-0.121-0.483-0.242-0.967c-0.242-0.725-0.483-1.329-0.483-1.571l-2.658,0.242c0.121,0.362,0.242,0.846,0.483,1.571
		c0.121,0.242,0.242,0.604,0.242,0.725h-9.063v2.175v0.121h7.25c-1.208,1.45-2.537,2.658-3.746,3.625
		c-0.604,0.483-1.208,0.967-2.054,1.329l1.087,2.175c0.363-0.121,1.208-0.242,2.538-0.362h0.967c0,1.933-0.483,3.383-1.329,4.229
		C51.337,67.27,49.766,68.116,47.228,68.962z"/>
	<path d="M168.434,53.603l-0.043-0.043c-0.001-0.001-0.002-0.002-0.003-0.003l-15.663-15.664c-0.321-0.321-0.853-0.326-1.179-0.001
		c-0.328,0.328-0.327,0.852-0.002,1.177l14.245,14.246H129.47c-0.465,0-0.836,0.373-0.836,0.833c0,0.463,0.374,0.833,0.836,0.833
		h36.284l-14.211,14.21c-0.328,0.328-0.323,0.851,0.002,1.177c0.328,0.328,0.855,0.324,1.182-0.003l15.523-15.533
		c0.227-0.149,0.384-0.393,0.384-0.684c0-0.208-0.083-0.39-0.207-0.536L168.434,53.603z"/>
	<path d="M239.646,18.807c0-6.904-5.596-12.5-12.5-12.5s-12.5,5.596-12.5,12.5s5.596,12.5,12.5,12.5S239.646,25.71,239.646,18.807z
		 M231.905,25.806h-9.52c0-1.32,0.473-2.5,1.42-3.54c0.613-0.693,1.646-1.54,3.1-2.54c1.134-0.813,1.881-1.406,2.24-1.78
		c0.733-0.8,1.101-1.653,1.101-2.56c0-0.866-0.261-1.54-0.78-2.02c-0.521-0.48-1.247-0.72-2.18-0.72c-1,0-1.754,0.333-2.261,1
		c-0.573,0.654-0.866,1.607-0.88,2.86h-1.64c0-1.587,0.446-2.86,1.34-3.82c0.88-0.96,2.047-1.44,3.5-1.44
		c1.32,0,2.406,0.38,3.26,1.14c0.854,0.773,1.28,1.78,1.28,3.02c0,1.227-0.467,2.347-1.4,3.36c-0.547,0.573-1.533,1.34-2.96,2.3
		c-1.813,1.214-2.854,2.307-3.12,3.28h7.5V25.806z"/>
	<path d="M258.378,79.416c0.647,0,1.174-0.526,1.174-1.174c0-0.517-0.354-0.984-0.847-1.127h-10.831
		c-1.928,0-3.496-1.568-3.496-3.496V30.86c0-1.928,1.568-3.496,3.496-3.496h39.292c1.928,0,3.496,1.568,3.496,3.496v8.289
		c0.122,0.526,0.597,0.905,1.142,0.905c0.625,0,1.14-0.488,1.172-1.112l0.004-0.061v-9.446c0-2.292-2.01-4.302-4.302-4.302h-42.161
		c-2.292,0-4.302,2.01-4.302,4.302V75.11h-0.001c0.001,2.292,2.01,4.301,4.302,4.301l11.782,0.002
		C258.324,79.415,258.351,79.416,258.378,79.416z"/>
	<polygon points="242.214,75.11 242.214,75.11 242.214,75.109 	"/>
	<path d="M298.696,64.796c0-10.11-8.225-18.336-18.335-18.336c-10.11,0.001-18.336,8.226-18.336,18.336
		c0,10.11,8.225,18.335,18.335,18.335S298.696,74.906,298.696,64.796z M264.156,64.797c0-8.936,7.27-16.205,16.205-16.205
		s16.205,7.269,16.205,16.205s-7.27,16.205-16.205,16.205S264.156,73.732,264.156,64.797z"/>
	<path d="M278.689,60.429c-0.111-0.082-0.259-0.14-0.444-0.173c-0.185-0.033-0.413-0.049-0.684-0.049h-3.353
		c-0.066,0-0.107-0.006-0.123-0.018c-0.017-0.012-0.033-0.039-0.049-0.08c-0.123-0.362-0.253-0.606-0.388-0.734
		c-0.135-0.127-0.335-0.191-0.598-0.191c-0.255,0-0.473,0.056-0.653,0.167c-0.181,0.111-0.271,0.257-0.271,0.438
		c0,0.074,0.012,0.138,0.037,0.191c0.025,0.053,0.045,0.096,0.062,0.129c0.017,0.033,0.025,0.059,0.025,0.075
		c0,0.017-0.029,0.025-0.086,0.025H268.7c-0.247,0-0.454,0.021-0.622,0.062c-0.169,0.041-0.302,0.111-0.401,0.21
		s-0.169,0.232-0.21,0.401c-0.041,0.169-0.062,0.376-0.062,0.623v0.949c0,0.239,0.074,0.425,0.222,0.561
		c0.148,0.136,0.329,0.203,0.542,0.203c0.041,0,0.078-0.002,0.111-0.006c0.033-0.004,0.07-0.01,0.11-0.018
		c-0.082,0.173-0.123,0.406-0.123,0.702v4.536c0,0.427,0.088,0.729,0.265,0.906s0.487,0.265,0.931,0.265h2.761
		c0.123,0,0.185,0.062,0.185,0.185v0.703c-0.025,0.247,0.045,0.431,0.21,0.555c0.164,0.123,0.345,0.185,0.542,0.185
		c0.197,0,0.378-0.062,0.542-0.185c0.164-0.123,0.234-0.308,0.209-0.555v-0.703c0-0.123,0.062-0.185,0.185-0.185h2.675
		c0.444,0,0.758-0.091,0.943-0.271c0.185-0.181,0.277-0.481,0.277-0.9v-4.536c0-0.312-0.045-0.546-0.135-0.703
		c0.025,0.008,0.066,0.012,0.123,0.012c0.345,0,0.6-0.171,0.764-0.512s0.246-0.811,0.246-1.411c0-0.205-0.023-0.378-0.068-0.518
		C278.878,60.623,278.8,60.512,278.689,60.429z M272.409,68.024L272.409,68.024c-0.001,0.123-0.063,0.185-0.186,0.185h-2.206
		c-0.165,0-0.246-0.107-0.246-0.321v-0.949c0-0.123,0.062-0.185,0.185-0.185h2.268c0.123,0,0.185,0.062,0.185,0.185V68.024z
		 M269.77,65.25v-0.863c0-0.205,0.082-0.308,0.246-0.308h2.206c0.123,0,0.185,0.062,0.185,0.185l0.001,0.986
		c0,0.123-0.062,0.185-0.185,0.185h-2.268C269.832,65.435,269.77,65.373,269.77,65.25z M272.408,62.279v0.271
		c0,0.123-0.062,0.185-0.185,0.185h-2.761c-0.239,0-0.444,0.025-0.616,0.074c0.057-0.057,0.086-0.177,0.086-0.358v-0.456
		c0-0.148,0.025-0.253,0.074-0.314c0.049-0.062,0.131-0.092,0.247-0.092h3.637C272.568,61.704,272.408,61.934,272.408,62.279z
		 M276.488,67.888c0,0.123-0.019,0.208-0.056,0.253s-0.105,0.068-0.203,0.068h-2.133c-0.123,0-0.185-0.062-0.185-0.185v-1.085
		c0-0.123,0.062-0.185,0.185-0.185h2.207c0.123,0,0.185,0.062,0.185,0.185V67.888z M276.488,65.25c0,0.123-0.062,0.185-0.185,0.185
		h-2.207c-0.123,0-0.185-0.062-0.185-0.185v-0.986c0-0.123,0.062-0.185,0.185-0.185h2.133c0.173,0,0.259,0.103,0.259,0.308V65.25z
		 M277.265,62.415c-0.041,0.115-0.062,0.195-0.062,0.24c0,0.045,0.004,0.084,0.012,0.117c-0.091-0.025-0.239-0.037-0.443-0.037
		h-2.675c-0.123,0-0.185-0.062-0.185-0.185v-0.27c0-0.345-0.16-0.575-0.481-0.69h3.538c0.164,0,0.279,0.012,0.345,0.037
		c0.065,0.025,0.099,0.078,0.099,0.16C277.413,61.934,277.364,62.144,277.265,62.415z"/>
	<path d="M281.247,67.024c0.033-0.066,0.06-0.098,0.08-0.098c0.02,0,0.031,0.037,0.031,0.111v3.39c0,0.222,0.07,0.403,0.21,0.542
		c0.14,0.14,0.32,0.21,0.542,0.21s0.403-0.07,0.542-0.21c0.14-0.14,0.209-0.32,0.209-0.542v-4.882c0-0.099,0.016-0.148,0.049-0.148
		s0.078,0.045,0.136,0.136c0.123,0.222,0.257,0.423,0.401,0.604c0.143,0.181,0.289,0.271,0.437,0.271
		c0.14,0,0.292-0.057,0.456-0.173c0.164-0.123,0.246-0.261,0.246-0.413c0-0.152-0.045-0.327-0.136-0.524
		c0.09,0.041,0.23,0.07,0.419,0.086c0.189,0.017,0.427,0.021,0.715,0.012l0.629-0.012c0.123,0,0.185,0.021,0.185,0.062
		s-0.222,0.226-0.666,0.555c-0.452,0.345-0.949,0.666-1.492,0.961c-0.444,0.247-0.666,0.502-0.666,0.764
		c0,0.173,0.062,0.333,0.185,0.481s0.304,0.222,0.542,0.222c0.197,0,0.39-0.053,0.579-0.16c0.395-0.205,0.799-0.464,1.214-0.777
		c0.415-0.312,0.82-0.664,1.214-1.054c0.395-0.39,0.768-0.82,1.122-1.288c0.353-0.468,0.67-0.961,0.949-1.479
		c0.115-0.214,0.173-0.399,0.173-0.555c0-0.099-0.023-0.193-0.068-0.284c-0.045-0.09-0.105-0.166-0.179-0.228
		c-0.074-0.061-0.154-0.111-0.24-0.148s-0.166-0.056-0.24-0.056c-0.239,0-0.477,0.218-0.715,0.653
		c-0.107,0.222-0.193,0.393-0.259,0.512c-0.066,0.119-0.123,0.209-0.173,0.271c-0.049,0.062-0.091,0.099-0.123,0.111
		c-0.033,0.012-0.066,0.018-0.098,0.018c-0.469,0-0.826,0.012-1.073,0.037c-0.246,0.025-0.37,0-0.37-0.074
		c0-0.041,0.094-0.205,0.284-0.493l0.9-1.356c0.074-0.115,0.144-0.173,0.21-0.173h3.464c0.222,0,0.398-0.066,0.53-0.197
		c0.131-0.131,0.197-0.304,0.197-0.518s-0.066-0.386-0.197-0.518c-0.132-0.131-0.308-0.197-0.53-0.197h-2.416
		c-0.091,0-0.148-0.041-0.173-0.123c-0.148-0.395-0.302-0.699-0.462-0.912c-0.16-0.214-0.343-0.321-0.549-0.321
		c-0.099,0-0.203,0.012-0.314,0.037c-0.111,0.025-0.21,0.06-0.296,0.105c-0.086,0.045-0.158,0.103-0.216,0.173
		c-0.058,0.07-0.086,0.154-0.086,0.253c0.008,0.156,0.033,0.286,0.074,0.388c0.041,0.103,0.076,0.185,0.105,0.246
		c0.029,0.062,0.041,0.104,0.037,0.129c-0.004,0.025-0.047,0.033-0.129,0.025h-2.404c-0.239,0-0.423,0.072-0.555,0.216
		c-0.131,0.144-0.189,0.339-0.173,0.586h-0.271c-0.123,0-0.185-0.062-0.185-0.185v-1.085c0-0.222-0.07-0.403-0.21-0.542
		c-0.14-0.14-0.321-0.21-0.542-0.21c-0.221,0-0.403,0.07-0.542,0.21c-0.14,0.14-0.21,0.321-0.21,0.542v1.085
		c0,0.123-0.062,0.185-0.185,0.185h-0.801c-0.23,0-0.415,0.068-0.555,0.203c-0.137,0.138-0.207,0.317-0.207,0.539
		c0,0.222,0.07,0.401,0.209,0.536c0.14,0.136,0.325,0.204,0.555,0.204h0.641c0.132,0,0.197,0.049,0.197,0.148
		c0,0.189-0.14,0.69-0.419,1.504c-0.14,0.419-0.296,0.826-0.468,1.22c-0.173,0.395-0.366,0.789-0.579,1.184
		c-0.115,0.206-0.173,0.411-0.173,0.616c0,0.206,0.086,0.362,0.259,0.468c0.181,0.107,0.349,0.16,0.505,0.16s0.3-0.057,0.432-0.173
		C280.906,67.764,281.066,67.476,281.247,67.024z M283.046,62.76h0.53c0.255,0,0.452-0.084,0.592-0.253
		c0.14-0.168,0.193-0.368,0.16-0.598h1.011c0.09,0,0.136,0.015,0.136,0.043c0,0.029-0.012,0.064-0.037,0.105
		c-0.115,0.164-0.232,0.337-0.351,0.518c-0.119,0.181-0.245,0.378-0.376,0.592c-0.255,0.428-0.423,0.719-0.505,0.875
		c-0.041,0.091-0.078,0.181-0.111,0.271c-0.033,0.091-0.066,0.181-0.099,0.271h-0.001c-0.131-0.181-0.288-0.39-0.468-0.629
		c-0.181-0.238-0.39-0.509-0.629-0.814c-0.033-0.09-0.045-0.183-0.037-0.277C282.869,62.77,282.931,62.735,283.046,62.76z"/>
	<path d="M291.133,69.454c-0.131-0.181-0.327-0.417-0.585-0.709c-0.259-0.292-0.59-0.639-0.992-1.042
		c-0.041-0.041-0.062-0.082-0.062-0.123c0-0.033,0.021-0.078,0.062-0.135c0.164-0.189,0.323-0.386,0.475-0.592
		c0.152-0.205,0.298-0.415,0.438-0.629c0.279-0.419,0.481-0.768,0.604-1.048c0.131-0.263,0.197-0.468,0.197-0.616
		c0-0.222-0.086-0.401-0.259-0.536c-0.173-0.136-0.357-0.204-0.555-0.204c-0.197,0-0.411,0.214-0.641,0.641
		c-0.641,1.192-1.451,2.221-2.428,3.088c-0.978,0.867-2.071,1.535-3.279,2.003c-0.46,0.189-0.69,0.419-0.69,0.69
		c0,0.091,0.014,0.183,0.043,0.277s0.076,0.185,0.142,0.271c0.066,0.086,0.15,0.156,0.253,0.21c0.103,0.053,0.228,0.08,0.376,0.08
		c0.288,0,0.855-0.23,1.701-0.69c0.419-0.23,0.824-0.481,1.214-0.752c0.39-0.271,0.77-0.567,1.14-0.887
		c0.041-0.041,0.086-0.062,0.136-0.062c0.049,0,0.107,0.041,0.173,0.123c0.041,0.041,0.094,0.103,0.16,0.185
		c0.066,0.082,0.152,0.181,0.259,0.296c0.107,0.123,0.242,0.29,0.407,0.499c0.164,0.21,0.353,0.462,0.567,0.758
		c0.115,0.14,0.212,0.255,0.29,0.345c0.078,0.09,0.158,0.148,0.24,0.173c0.082,0.025,0.177,0.018,0.284-0.018
		c0.107-0.037,0.242-0.113,0.407-0.228c0.107-0.082,0.189-0.166,0.247-0.253c0.057-0.086,0.084-0.183,0.08-0.29
		c-0.004-0.107-0.039-0.226-0.105-0.358C291.363,69.791,291.264,69.634,291.133,69.454z"/>
	<path d="M250.612,44.805c-0.703,0-1.29,0.581-1.29,1.288c0,0.701,0.587,1.288,1.29,1.288h11.223c0.703,0,1.289-0.586,1.289-1.288
		c0-0.707-0.586-1.288-1.289-1.288H250.612z"/>
	<path d="M277.185,40.82c0-0.707-0.587-1.288-1.288-1.288h-25.285c-0.703,0-1.29,0.581-1.29,1.288c0,0.701,0.587,1.288,1.29,1.288
		h25.285C276.599,42.108,277.185,41.521,277.185,40.82z"/>
	<path d="M285.901,35.662c0-0.701-0.587-1.288-1.288-1.288h-34.001c-0.703,0-1.29,0.586-1.29,1.288c0,0.701,0.587,1.288,1.29,1.288
		h34.001C285.315,36.95,285.901,36.363,285.901,35.662z"/>
	<path d="M379.447,53.603l-0.043-0.043c-0.001-0.001-0.002-0.002-0.003-0.003l-15.663-15.664c-0.321-0.321-0.853-0.326-1.179-0.001
		c-0.328,0.328-0.327,0.852-0.002,1.177l14.245,14.246h-36.319c-0.465,0-0.836,0.373-0.836,0.833c0,0.463,0.374,0.833,0.836,0.833
		h36.284l-14.211,14.21c-0.328,0.328-0.323,0.851,0.002,1.177c0.328,0.328,0.855,0.324,1.182-0.003l15.523-15.533
		c0.227-0.149,0.384-0.393,0.384-0.684c0-0.208-0.083-0.39-0.208-0.536L379.447,53.603z"/>
	<path d="M458.659,18.807c0-6.904-5.596-12.5-12.5-12.5s-12.5,5.596-12.5,12.5s5.596,12.5,12.5,12.5
		C453.062,31.307,458.659,25.71,458.659,18.807z M441.179,21.386h1.66c0.04,1.12,0.413,1.973,1.119,2.56
		c0.613,0.493,1.36,0.74,2.24,0.74c1.014,0,1.833-0.293,2.46-0.88c0.573-0.573,0.86-1.273,0.86-2.1c0-0.853-0.28-1.52-0.84-2
		c-0.547-0.466-1.32-0.7-2.32-0.7h-1.16v-1.28h1.101c0.946,0,1.673-0.213,2.18-0.64c0.507-0.44,0.76-1.06,0.76-1.86
		c0-0.787-0.247-1.406-0.74-1.86c-0.507-0.467-1.233-0.7-2.18-0.7c-0.974,0-1.72,0.253-2.24,0.76
		c-0.547,0.507-0.873,1.247-0.979,2.22h-1.62c0.12-1.373,0.627-2.453,1.52-3.24c0.827-0.773,1.927-1.16,3.301-1.16
		c1.386,0,2.493,0.347,3.319,1.04c0.827,0.707,1.24,1.653,1.24,2.84c0,1.614-0.78,2.68-2.34,3.2c0.853,0.267,1.493,0.673,1.92,1.22
		c0.479,0.56,0.72,1.26,0.72,2.1c0,1.293-0.453,2.354-1.359,3.18c-0.92,0.84-2.12,1.26-3.601,1.26c-1.333,0-2.439-0.346-3.319-1.04
		C441.865,24.206,441.299,22.987,441.179,21.386z"/>
	<path d="M510.025,52.132c0-6.128-1.989-12.201-5.608-17.143l-0.96,0.951l-0.158,0.096l-25.182,25.18l-11.775-11.773l-1.764,1.764
		l13.539,13.538l25.916-25.914l0.931,1.956c1.703,3.58,2.567,7.397,2.567,11.345c0,14.613-11.891,26.502-26.506,26.502
		c-14.616,0-26.506-11.889-26.506-26.502c0-14.613,11.891-26.502,26.506-26.502c4.83,0,9.551,1.31,13.668,3.792l1.749-1.847
		c-4.615-2.907-9.937-4.443-15.417-4.443c-15.991,0-29,13.009-29,29c0,15.991,13.009,29,29,29
		C497.015,81.132,510.025,68.123,510.025,52.132z"/>
	<path d="M24.622,93.725h-1.24v6.5c-0.04,1.813-0.3,3.3-0.78,4.46c-0.52,1.094-1.447,1.974-2.78,2.641l0.78,1.199
		c1.386-0.693,2.393-1.666,3.02-2.92c0.626-1.307,0.96-3.1,1-5.38V93.725z"/>
	<polygon points="27.482,103.484 27.482,90.925 20.562,90.925 20.562,103.484 21.882,103.484 21.882,92.265 26.202,92.265 
		26.202,103.484 	"/>
	<path d="M31.782,95.825l0.78,1.12c1.893-1.08,3.54-2.747,4.94-5l-1.1-0.9C35.122,93.191,33.582,94.785,31.782,95.825z"/>
	<path d="M24.382,104.945c1.16,1.213,2.053,2.353,2.68,3.42l1.02-1.021c-0.76-1.106-1.687-2.206-2.78-3.3L24.382,104.945z"/>
	<path d="M37.802,99.805v-1.399h-6.64v-8.261h-1.4v8.261h-1.44v1.399h1.44v6.72c0,0.267-0.153,0.474-0.46,0.62l0.6,1.28
		c1.573-0.493,2.987-1.134,4.24-1.92l-0.26-1.28c-0.894,0.573-1.8,1.033-2.72,1.38v-6.8h1.76c0.96,3.72,2.387,6.547,4.28,8.48
		l0.98-1.12c-1.76-1.733-3.094-4.187-4-7.36H37.802z"/>
	<path d="M48.982,90.005l-1.54,0.24c0.4,0.68,0.787,1.46,1.16,2.34h-6.52v6.26c-0.04,3.601-0.867,6.514-2.48,8.74l1.06,0.96
		c1.786-2.573,2.733-5.653,2.84-9.24h12.88v-6.72h-6.32C49.702,91.625,49.342,90.765,48.982,90.005z M54.922,97.905h-11.42v-3.9
		h11.42V97.905z"/>
	<path d="M76.082,106.425c-0.24,0.2-0.527,0.3-0.86,0.3h-2.44c-0.733,0-1.1-0.326-1.1-0.979v-6.141l2.56-0.26
		c0.4,0.64,0.76,1.26,1.08,1.86l1.22-0.84c-0.88-1.561-2.12-3.4-3.72-5.521l-1.18,0.74c0.693,0.934,1.286,1.773,1.78,2.52
		c-3.24,0.348-6.253,0.594-9.04,0.74c0.96-1.013,2.06-2.666,3.3-4.96h9.88v-1.38h-7.66c-0.32-0.946-0.66-1.786-1.02-2.521
		l-1.54,0.24c0.427,0.721,0.8,1.48,1.12,2.28h-8.12v1.38h5.8c-1.56,2.707-2.807,4.354-3.74,4.94c-0.147,0.08-0.253,0.127-0.32,0.14
		l0.34,1.3c1.493-0.08,2.58-0.146,3.26-0.2c-0.16,1.987-0.6,3.454-1.32,4.4c-0.867,1.066-2.24,1.974-4.12,2.72l0.9,1.141
		c2.093-0.894,3.606-1.967,4.54-3.221c0.786-1.133,1.26-2.847,1.42-5.14l3.16-0.24v6.26c0,1.414,0.7,2.12,2.1,2.12h3.24
		c0.693-0.026,1.22-0.206,1.58-0.54c0.373-0.427,0.646-1.64,0.82-3.64l-1.36-0.42C76.562,105.158,76.375,106.132,76.082,106.425z"/>
	<path d="M96.142,94.984h-3.86v-1.659h5.18v-1.32h-5.18v-1.84h-1.44v1.84h-5.12v1.32h5.12v1.659h-3.92v11.561h-2.06v1.32h13.22
		v-1.32h-1.94V94.984z M94.762,106.545h-6.46v-1.68h6.46V106.545z M94.762,103.705h-6.46v-1.681h6.46V103.705z M94.762,100.865
		h-6.46v-1.66h6.46V100.865z M94.762,98.045h-6.46v-1.76h6.46V98.045z"/>
	<path d="M84.042,90.064c-0.88,3.094-2.287,5.834-4.22,8.221l0.46,1.54c0.813-0.934,1.56-1.92,2.24-2.96v11.64h1.4v-14.14
		c0.52-1.067,0.993-2.301,1.42-3.7L84.042,90.064z"/>
	<path d="M230.995,98.465c-0.067,3.867-0.833,6.873-2.3,9.02l1.1,0.98c1.693-2.52,2.58-5.854,2.66-10v-5.96h13.94v-1.4h-15.4V98.465
		z"/>
	<path d="M262.255,100.245c1.2-0.467,2.347-1.061,3.44-1.78l-0.98-0.98c-1.666,1.094-3.433,1.9-5.3,2.421
		c-0.414-0.841-0.974-1.62-1.68-2.341c0.414-0.239,0.96-0.593,1.64-1.06h4.58v-1.34h-11.98v1.34h5.3c-0.48,0.267-1.167,0.6-2.06,1
		c-1.533,0.653-3.267,1.193-5.2,1.62l0.74,1.18c2.253-0.64,4.067-1.28,5.44-1.92l0.44-0.22c0.346,0.387,0.613,0.733,0.8,1.04
		c-1.787,1.373-4.38,2.507-7.78,3.399l0.72,1.24c3.24-0.92,5.8-2.12,7.68-3.6c0.2,0.413,0.393,0.913,0.58,1.5
		c-2.147,1.773-5.22,3.247-9.22,4.42l0.72,1.24c3.626-1.107,6.553-2.533,8.78-4.28c0.026,0.24,0.053,0.573,0.08,1
		c0,1.24-0.18,2.08-0.54,2.52c-0.293,0.333-1.033,0.514-2.22,0.54h-0.96l0.48,1.261h0.68c1.72,0,2.827-0.348,3.32-1.04
		c0.427-0.614,0.64-1.707,0.64-3.28c-0.013-1.08-0.187-2.12-0.52-3.12l1.22-0.34c0.96,2.733,2.541,4.993,4.74,6.78l1.021-1.181
		C264.722,104.758,263.188,102.752,262.255,100.245z"/>
	<path d="M266.396,95.365v-3.48h-7.521c-0.24-0.786-0.467-1.42-0.68-1.9l-1.46,0.261c0.253,0.493,0.487,1.04,0.7,1.64h-7.92v3.48
		h1.42v-2.141h14.041v2.141H266.396z"/>
	<path d="M278.096,89.945l-1.521,0.26c0.187,0.387,0.394,0.866,0.62,1.439h-7.62v3.601h1.4v-2.3h13.88v2.199h1.399v-3.5h-7.579
		C278.436,90.885,278.242,90.318,278.096,89.945z"/>
	<path d="M278.735,93.945h-1.44v2h-5.84v9.699h1.4v-1.18h4.439v4.06h1.44v-4.06h4.5v1.12h1.4v-9.64h-5.9V93.945z M277.295,103.145
		h-4.439v-2.3h4.439V103.145z M277.295,99.564h-4.439v-2.3h4.439V99.564z M283.235,103.145h-4.5v-2.3h4.5V103.145z M283.235,97.265
		v2.3h-4.5v-2.3H283.235z"/>
	<path d="M296.035,92.325v1.3h3.88c-1.279,2.187-2.313,3.533-3.1,4.04c-0.107,0.054-0.2,0.093-0.28,0.12l0.3,1.18
		c1.254-0.053,2.747-0.127,4.48-0.22c-1.64,1.84-3.667,3.187-6.08,4.04l0.78,1.199c3.853-1.426,6.786-4.133,8.8-8.119l-1.16-0.62
		c-0.373,0.76-0.833,1.513-1.38,2.26c-0.867,0.066-2.127,0.153-3.78,0.26c0.827-0.8,1.793-2.18,2.9-4.14h5.479v-1.3h-4.439
		c-0.268-0.787-0.561-1.527-0.88-2.221l-1.48,0.24c0.36,0.601,0.68,1.26,0.96,1.98H296.035z"/>
	<path d="M303.335,103.524c1.32-1.333,2.453-2.893,3.4-4.68l-1.22-0.64c-2.334,4.373-5.854,7.333-10.561,8.88l0.78,1.24
		c2.52-0.867,4.753-2.174,6.7-3.92c1.479,1.399,2.66,2.72,3.54,3.96l1.04-1.04C306.068,106.125,304.842,104.858,303.335,103.524z"/>
	<path d="M296.096,100.465c-1.04-1.453-2.014-2.7-2.92-3.74v-1.3h2.359v-1.38h-2.359v-3.9h-1.381v3.9h-2.76v1.38h2.7
		c-0.613,2.68-1.627,5.033-3.04,7.06l0.6,1.48c1.04-1.667,1.873-3.507,2.5-5.52v10.02h1.381v-10.18
		c0.532,0.76,1.239,1.894,2.119,3.399L296.096,100.465z"/>
	<path d="M457.108,106.425c-0.24,0.2-0.526,0.3-0.86,0.3h-2.439c-0.733,0-1.1-0.326-1.1-0.979v-6.141l2.56-0.26
		c0.4,0.64,0.76,1.26,1.08,1.86l1.22-0.84c-0.88-1.561-2.12-3.4-3.72-5.521l-1.18,0.74c0.692,0.934,1.286,1.773,1.779,2.52
		c-3.239,0.348-6.253,0.594-9.04,0.74c0.96-1.013,2.061-2.666,3.301-4.96h9.88v-1.38h-7.66c-0.32-0.946-0.66-1.786-1.021-2.521
		l-1.54,0.24c0.427,0.721,0.801,1.48,1.12,2.28h-8.12v1.38h5.801c-1.561,2.707-2.808,4.354-3.74,4.94
		c-0.147,0.08-0.254,0.127-0.32,0.14l0.34,1.3c1.493-0.08,2.58-0.146,3.261-0.2c-0.16,1.987-0.601,3.454-1.32,4.4
		c-0.867,1.066-2.24,1.974-4.12,2.72l0.9,1.141c2.093-0.894,3.606-1.967,4.54-3.221c0.786-1.133,1.26-2.847,1.42-5.14l3.159-0.24
		v6.26c0,1.414,0.7,2.12,2.101,2.12h3.24c0.692-0.026,1.22-0.206,1.58-0.54c0.373-0.427,0.646-1.64,0.819-3.64l-1.359-0.42
		C457.589,105.158,457.401,106.132,457.108,106.425z"/>
	<path d="M465.068,90.064c-0.88,3.094-2.287,5.834-4.22,8.221l0.46,1.54c0.813-0.934,1.56-1.92,2.24-2.96v11.64h1.399v-14.14
		c0.521-1.067,0.993-2.301,1.42-3.7L465.068,90.064z"/>
	<path d="M477.169,94.984h-3.86v-1.659h5.18v-1.32h-5.18v-1.84h-1.44v1.84h-5.12v1.32h5.12v1.659h-3.92v11.561h-2.06v1.32h13.22
		v-1.32h-1.939V94.984z M475.788,106.545h-6.46v-1.68h6.46V106.545z M475.788,103.705h-6.46v-1.681h6.46V103.705z M475.788,100.865
		h-6.46v-1.66h6.46V100.865z M475.788,98.045h-6.46v-1.76h6.46V98.045z"/>
	<path d="M496.929,106.564c-0.4,0-0.934-0.479-1.601-1.439c-0.307-0.453-0.606-1.007-0.899-1.66c1.267-1.786,2.307-4.013,3.12-6.68
		l-1.301-0.561c-0.626,2.174-1.433,4.047-2.42,5.62c-0.173-0.547-0.307-1.013-0.399-1.399c-0.374-1.48-0.627-3.44-0.76-5.881h6.159
		v-1.38h-2.439l0.92-0.92c-0.693-0.76-1.514-1.493-2.46-2.2l-0.92,0.881c1.013,0.773,1.819,1.52,2.42,2.239h-3.74
		c-0.04-0.96-0.06-1.993-0.06-3.1h-1.48c0,1.066,0.021,2.1,0.061,3.1h-8.261v6.66c-0.066,3.267-0.733,5.813-2,7.64l1.101,0.98
		c1.493-2.173,2.279-5.047,2.359-8.62v-0.6h3.46c-0.04,2.279-0.113,3.72-0.22,4.319c-0.12,0.574-0.399,0.867-0.84,0.881
		c-0.533,0-1.193-0.021-1.98-0.061l0.44,1.3c0.854,0.054,1.42,0.08,1.7,0.08c1-0.04,1.626-0.486,1.88-1.34
		c0.267-1,0.42-3.18,0.46-6.54h-4.9v-3.32h6.86c0.16,2.574,0.453,4.667,0.88,6.28c0.2,0.8,0.453,1.601,0.76,2.4
		c-1.373,1.733-3.066,3.053-5.08,3.96l0.801,1.2c1.893-0.854,3.533-2.087,4.92-3.7c0.293,0.613,0.626,1.167,1,1.66
		c0.96,1.199,1.859,1.8,2.7,1.8c0.893,0,1.579-1.334,2.06-4l-1.3-0.72C497.635,105.498,497.302,106.538,496.929,106.564z"/>
	<path d="M513.389,93.905v-3.721h-1.48v3.721h-3v1.38h3v0.199c-0.04,5.521-1.533,9.534-4.479,12.04l1.18,1.021
		c3.106-2.747,4.7-7.1,4.78-13.061v-0.199h3.66c-0.04,5.56-0.12,8.88-0.24,9.96c-0.2,1.12-0.953,1.68-2.26,1.68
		c-0.547,0-1.193-0.02-1.94-0.06l0.34,1.34l1.82,0.08c2.026,0,3.16-0.813,3.4-2.44c0.199-1.547,0.3-5.526,0.3-11.939H513.389z"/>
	<path d="M508.488,101.925c-1.12,0.453-2.167,0.827-3.14,1.12v-9.58h2.88v-1.4h-7.22v1.4h2.88v10.02
		c-0.934,0.24-1.947,0.468-3.04,0.681l0.36,1.46c2.546-0.587,4.973-1.34,7.279-2.26V101.925z"/>
</g>
</svg>
