<svg version="1" xmlns="http://www.w3.org/2000/svg" width="400" height="400" viewBox="0 0 400 400"><path d="M324 61c0-18-14-32-31-32h-22v26c0 18-14 32-31 32H85c-17 0-31-14-31-32V29H31C14 29 0 43 0 61v304c0 17 14 31 31 31h179l5-32 7-51 102-110V61zM189 308H82a15 15 0 0 1 0-30h107a15 15 0 0 1 0 30zm42-68H82a15 15 0 0 1 0-29h149a15 15 0 0 1 0 29zm12-67H82c-8 0-15-6-15-14s7-15 15-15h161a15 15 0 0 1 0 29zM400 251c0-6-2-11-6-15l-13-12c-4-3-8-5-13-5s-10 2-14 7l-14 15-93 107-5 41c0 2 0 4 2 5a6 6 0 0 0 5 2l39-9 90-104 3-3 1-1 12-13c4-4 6-10 6-15z"/><path d="M104 57h117c11 0 21-9 21-21V25c0-12-10-21-21-21H104c-12 0-21 9-21 21v11c0 12 9 21 21 21z"/></svg>