<?xml version="1.0" encoding="UTF-8"?>
<!DOCTYPE svg PUBLIC "-//W3C//DTD SVG 1.1//EN" "http://www.w3.org/Graphics/SVG/1.1/DTD/svg11.dtd">
<!-- Creator: CorelDRAW X6 -->
<svg xmlns="http://www.w3.org/2000/svg" xml:space="preserve" width="338.899mm" height="268.383mm" version="1.1" style="shape-rendering:geometricPrecision; text-rendering:geometricPrecision; image-rendering:optimizeQuality; fill-rule:evenodd; clip-rule:evenodd"
viewBox="0 0 9660 7650"
 xmlns:xlink="http://www.w3.org/1999/xlink">
 <defs>
  <style type="text/css">
   <![CDATA[
    .str0 {stroke:#332C2B;stroke-width:142.524}
    .fil0 {fill:#332C2B;fill-rule:nonzero}
   ]]>
  </style>
 </defs>
 <g id="图层_x0020_1">
  <metadata id="CorelCorpID_0Corel-Layer"/>
  <path class="fil0 str0" d="M2498 5850c169,0 306,137 306,306 0,169 -137,306 -306,306 -668,0 -1274,-273 -1714,-713 -440,-440 -713,-1047 -713,-1714l0 0c0,-596 218,-1144 578,-1568 335,-394 793,-680 1314,-799 290,-467 691,-858 1167,-1137 500,-293 1081,-461 1700,-461 619,0 1200,168 1700,461 476,278 877,670 1167,1137 521,118 979,405 1314,799 360,424 578,971 578,1568l0 0c0,668 -273,1274 -713,1714 -440,440 -1047,713 -1714,713l-2219 0 622 591c122,116 127,309 11,432 -116,122 -309,127 -432,11l-1181 -1121 -7 -7c-8,-8 -16,-17 -23,-26l-6 -8c-5,-7 -10,-14 -14,-21l-4 -6 -10 -18 -5 -10c-4,-9 -7,-17 -11,-26l-2 -7 0 -1 -3 -8 -3 -11 0 -1c-3,-10 -5,-21 -6,-31l-1 -8 -1 -8 -1 -12 0 -13 0 0 0 -13 1 -12 1 -8 1 -8c1,-11 3,-21 6,-31l0 -1 3 -11 3 -8 0 -1 2 -7c3,-9 7,-18 11,-26l5 -10 10 -18 4 -6c4,-7 9,-14 14,-21l6 -8c7,-9 15,-17 23,-26l7 -7 1181 -1121c122,-116 315,-111 432,11 116,122 111,315 -11,432l-632 601 2229 0c499,0 952,-204 1282,-533 329,-329 533,-783 533,-1282l0 0c0,-446 -163,-856 -432,-1173 -271,-319 -650,-544 -1078,-617 -94,-11 -181,-65 -230,-154 -241,-428 -592,-786 -1015,-1033 -407,-238 -882,-375 -1391,-375 -509,0 -985,137 -1391,375 -423,247 -774,605 -1015,1033l0 0c-44,78 -122,136 -217,152 -433,71 -817,297 -1090,619 -269,317 -432,727 -432,1173l0 0c0,499 204,952 533,1282 329,329 783,533 1282,533z"/>
 </g>
</svg>
