<?xml version="1.0" encoding="utf-8"?>
<!-- Generator: Adobe Illustrator 17.0.0, SVG Export Plug-In . SVG Version: 6.00 Build 0)  -->
<!DOCTYPE svg PUBLIC "-//W3C//DTD SVG 1.1//EN" "http://www.w3.org/Graphics/SVG/1.1/DTD/svg11.dtd">
<svg version="1.1" id="图层_1" xmlns="http://www.w3.org/2000/svg" xmlns:xlink="http://www.w3.org/1999/xlink" x="0px" y="0px"
	 width="400px" height="400px" viewBox="0 0 400 400" enable-background="new 0 0 400 400" xml:space="preserve">
<path d="M375.21,142.449c-15.181-17.742-36.012-29.889-58.758-34.292c-24.379-41.061-68.902-66.524-116.472-66.524
	c-47.6,0-92.11,25.491-116.438,66.6c-22.747,4.404-43.574,16.544-58.751,34.271C8.805,161.175,0,184.937,0,209.415
	c0,56.879,46.275,103.154,103.152,103.154l2.239,0.003c6.561,0,20.211,0,20.211-14.809c0-5.963-2.542-15.966-19.569-15.966
	c-0.985,0-2.02,0.026-3.159,0.078c-1.045,0.046-2.075,0.069-3.061,0.069c-44.525,0-69.149-42.908-69.149-72.568
	c0-30.178,27.7-70.257,58.829-72.274l13.204-0.842l5.629-11.943c15.386-32.562,58.684-52.02,91.655-52.02
	c33.507,0,77.36,19.457,92.745,52.015l5.641,11.964l13.225,0.787c13.984,0.907,28.966,10.042,41.104,25.064
	c11.785,14.584,18.821,32.234,18.821,47.214c0,15.088-7.91,33.713-20.641,48.609c-13.566,15.869-30.076,24.971-45.298,24.971
	h-97.904l15.557-15.555c3.432-3.413,13.877-13.8,4.552-23.902c-2.55-2.763-5.815-4.224-9.441-4.224
	c-4.987,0-10.323,2.816-15.803,8.316l-36.504,34.321c-4.244,4.218-6.586,9.836-6.594,15.819c-0.01,6.004,2.341,11.666,6.644,15.965
	l39.663,38.574c3,2.965,8.161,6.133,13.646,6.133c3.749,0,7.141-1.518,9.526-4.246c2.902-3.214,8.476-11.862-2.404-22.747
	l-18.844-18.844h89.173c56.879,0,103.154-46.275,103.154-103.155C400,184.899,391.196,161.13,375.21,142.449z"/>
</svg>
