<?xml version="1.0" encoding="utf-8"?>
<!-- Generator: Adobe Illustrator 17.0.0, SVG Export Plug-In . SVG Version: 6.00 Build 0)  -->
<!DOCTYPE svg PUBLIC "-//W3C//DTD SVG 1.1//EN" "http://www.w3.org/Graphics/SVG/1.1/DTD/svg11.dtd">
<svg version="1.1" id="图层_1" xmlns="http://www.w3.org/2000/svg" xmlns:xlink="http://www.w3.org/1999/xlink" x="0px" y="0px"
	 width="400px" height="400px" viewBox="0 0 400 400" enable-background="new 0 0 400 400" xml:space="preserve">
<g>
	<path fill="#040000" d="M214.052,312.409L102.64,185.041l-0.712-0.818L0.013,286.144v46.502c0,10.195,8.296,18.497,18.494,18.497
		h362.996c0.686,0,1.345-0.092,2.018-0.27h15.76l-102.705-88.04L214.052,312.409z"/>
	<path fill="#040000" d="M381.503,48.857H18.507c-5.088,0-10.007,2.084-13.502,5.72c-3.36,3.502-5.18,8.17-4.992,12.77v186.327
		l102.939-102.946l115.106,131.625l0.557,0.64l80.216-48.132l99.494,85.283l1.675,1.431V67.347
		C400,57.152,391.698,48.857,381.503,48.857z M321.357,155.851c-18.49,0-33.531-15.045-33.531-33.538
		c0-18.493,15.041-33.535,33.531-33.535c18.497,0,33.538,15.041,33.538,33.535C354.896,140.807,339.854,155.851,321.357,155.851z"/>
</g>
</svg>
