<?xml version="1.0" encoding="utf-8"?>
<!-- Generator: Adobe Illustrator 17.0.0, SVG Export Plug-In . SVG Version: 6.00 Build 0)  -->
<!DOCTYPE svg PUBLIC "-//W3C//DTD SVG 1.1//EN" "http://www.w3.org/Graphics/SVG/1.1/DTD/svg11.dtd">
<svg version="1.1" id="图层_1" xmlns="http://www.w3.org/2000/svg" xmlns:xlink="http://www.w3.org/1999/xlink" x="0px" y="0px"
	 width="400px" height="400px" viewBox="106 196 400 400" enable-background="new 106 196 400 400" xml:space="preserve">
<g>
	<path d="M306.791,473.777c62.895,0,114.072-50.125,114.072-111.733v-53.419c0-61.608-51.177-111.728-114.072-111.728
		c-62.9,0-114.072,50.121-114.072,111.728v53.419C192.719,423.651,243.89,473.777,306.791,473.777z M224.692,359.396v-48.119
		c0-44.309,36.83-80.358,82.104-80.358c45.308,0,82.161,36.048,82.161,80.358v48.119c0,44.309-36.854,80.363-82.161,80.363
		C261.522,439.759,224.692,403.705,224.692,359.396z"/>
	<path d="M459.202,457.062l-42.843-11.661c-5.681-1.688-13.802,3.752-15.548,9.867c-1.109,3.897-0.54,11.159,2.074,15.76
		c1.244,2.18,2.816,3.54,4.668,4.032l42.728,11.728c20.64,5.768,24.267,12.587,24.267,24.778v33.555
		c0,14.689-4.379,18.933-19.522,18.933H156.979c-14.897,0-18.977-4.07-18.977-18.933v-33.555c0-0.617-0.068-1.36-0.154-2.209
		c-0.569-5.633-1.63-16.136,24.831-23.669l44.85-12.133c1.736-0.482,3.188-1.678,4.2-3.472c2.416-4.292,2.016-11.478,0.955-15.21
		c-1.558-5.459-8.782-11.642-14.988-9.934l-44.999,12.201C114.102,468.097,106,489.499,106,505.52v40.702
		c0,26.958,22.377,48.881,49.879,48.881h300.246c27.498,0,49.875-21.923,49.875-48.881V505.52
		C506,489.431,497.888,467.961,459.202,457.062z"/>
</g>
</svg>
