<?xml version="1.0" encoding="utf-8"?>
<!-- Generator: Adobe Illustrator 17.0.0, SVG Export Plug-In . SVG Version: 6.00 Build 0)  -->
<!DOCTYPE svg PUBLIC "-//W3C//DTD SVG 1.1//EN" "http://www.w3.org/Graphics/SVG/1.1/DTD/svg11.dtd">
<svg version="1.1" id="图层_1" xmlns="http://www.w3.org/2000/svg" xmlns:xlink="http://www.w3.org/1999/xlink" x="0px" y="0px"
	 width="400px" height="400px" viewBox="0 0 400 400" enable-background="new 0 0 400 400" xml:space="preserve">
<g>
	<path d="M200.791,277.778c62.895,0,114.072-50.125,114.072-111.733v-53.419c0-61.608-51.177-111.728-114.072-111.728
		c-62.9,0-114.072,50.121-114.072,111.728v53.419C86.719,227.652,137.891,277.778,200.791,277.778z"/>
	<path d="M353.202,261.063l-23.089-1.784c-5.681-1.688-13.802,3.752-15.548,9.867c-13.009,50.203-206.013,59.669-227.636-0.395
		c-1.558-5.459-8.782-11.642-14.988-9.934l-25.245,2.324C8.102,272.097,0,293.499,0,309.52v40.702
		c0,26.958,22.377,48.881,49.879,48.881h300.246c27.498,0,49.875-21.923,49.875-48.881V309.52
		C400,293.432,391.888,271.962,353.202,261.063z"/>
</g>
</svg>
