<?xml version="1.0" encoding="utf-8"?>
<!-- Generator: Adobe Illustrator 17.0.0, SVG Export Plug-In . SVG Version: 6.00 Build 0)  -->
<!DOCTYPE svg PUBLIC "-//W3C//DTD SVG 1.1//EN" "http://www.w3.org/Graphics/SVG/1.1/DTD/svg11.dtd">
<svg version="1.1" id="图层_1" xmlns="http://www.w3.org/2000/svg" xmlns:xlink="http://www.w3.org/1999/xlink" x="0px" y="0px"
	 width="400px" height="400px" viewBox="0 0 400 400" enable-background="new 0 0 400 400" xml:space="preserve">
<g>
	<path fill="#040000" d="M139.471,198.313c-7.339-5.061-18.204-3.021-23.251,4.308c-2.53,3.679-3.474,8.12-2.659,12.514
		c0.815,4.394,3.293,8.206,6.972,10.732l48.675,33.464c2.783,1.925,6.062,2.945,9.483,2.945c4.47,0,8.673-1.735,11.823-4.889
		l91.303-91.274c6.51-6.51,6.519-17.118,0.01-23.647c-6.31-6.314-17.337-6.329-23.647,0l-81.472,81.448L139.471,198.313z"/>
	<path fill="#040000" d="M359.152,77.845c-47.684-10.56-85.284-29.951-108.425-44.358c-24.948-15.531-39.001-28.841-39.125-28.96
		c-6.267-6.043-16.932-6.028-23.199-0.005C187.85,5.051,132.17,57.62,40.843,77.845c-7.591,1.682-13.1,8.549-13.1,16.327v153.684
		c0,1.887,0.319,3.755,0.953,5.576c1.044,2.926,10.913,29.527,35.761,60.408c14.888,18.5,32.134,34.722,51.268,48.218
		c23.923,16.851,50.801,29.422,79.823,37.333c1.387,0.4,2.931,0.61,4.456,0.61c1.535,0,3.059-0.21,4.484-0.61
		c29.032-7.92,55.876-20.482,79.789-37.333c19.11-13.477,36.361-29.699,51.268-48.218c25.686-31.92,35.37-59.293,35.742-60.37
		c0.639-1.744,0.972-3.679,0.972-5.614V94.172C372.257,86.27,366.863,79.556,359.152,77.845z M338.822,107.339v137.352
		c-2.831,6.824-11.981,26.83-29.909,48.904c-28.536,35.17-65.169,59.483-108.912,72.312c-43.743-12.829-80.38-37.143-108.916-72.312
		c-17.952-22.122-27.078-42.08-29.904-48.894V107.339c46.712-12.166,83.545-31.572,106.433-45.887
		c14.135-8.84,25.043-16.97,32.387-22.87c7.334,5.89,18.233,14.025,32.382,22.87C255.273,75.767,292.101,95.173,338.822,107.339z"/>
</g>
</svg>
